<svg width="620" height="332" viewBox="0 0 620 332" fill="none" xmlns="http://www.w3.org/2000/svg">
<circle cx="298.597" cy="102.597" r="83.5967" fill="black" fill-opacity="0.6"/>
<rect x="300.179" y="83" width="139.394" height="29.951" transform="rotate(45 300.179 83)" fill="black" fill-opacity="0.6"/>
<rect x="279" y="102.567" width="139.394" height="29.951" transform="rotate(-45 279 102.567)" fill="black" fill-opacity="0.6"/>
<path d="M72.4322 268.741C72.4322 273.845 71.5927 278.613 69.9137 283.046C68.2347 287.411 65.8505 291.24 62.7611 294.53C59.7389 297.821 56.1459 300.407 51.9819 302.287C47.818 304.101 43.2511 305.007 38.2813 305.007C33.3786 305.007 28.8453 304.101 24.6813 302.287C20.5174 300.407 16.8908 297.821 13.8014 294.53C10.7792 291.24 8.42859 287.411 6.74959 283.046C5.13775 278.613 4.33183 273.845 4.33183 268.741C4.33183 263.637 5.13775 258.902 6.74959 254.537C8.42859 250.104 10.7792 246.242 13.8014 242.951C16.8908 239.661 20.5174 237.109 24.6813 235.295C28.8453 233.415 33.3786 232.474 38.2813 232.474C43.2511 232.474 47.818 233.415 51.9819 235.295C56.1459 237.109 59.7389 239.661 62.7611 242.951C65.8505 246.242 68.2347 250.104 69.9137 254.537C71.5927 258.902 72.4322 263.637 72.4322 268.741ZM61.5522 268.741C61.5522 263.771 60.5448 259.305 58.53 255.342C56.5824 251.38 53.8624 248.257 50.3701 245.974C46.8778 243.69 42.8482 242.548 38.2813 242.548C33.7815 242.548 29.7855 243.69 26.2932 245.974C22.8009 248.257 20.0809 251.38 18.1332 255.342C16.1856 259.238 15.2118 263.704 15.2118 268.741C15.2118 273.711 16.1856 278.177 18.1332 282.139C20.0809 286.102 22.8009 289.225 26.2932 291.508C29.7855 293.792 33.7815 294.933 38.2813 294.933C42.8482 294.933 46.8778 293.792 50.3701 291.508C53.8624 289.225 56.5824 286.102 58.53 282.139C60.5448 278.177 61.5522 273.711 61.5522 268.741ZM110.285 250.104C115.254 250.104 119.082 251.346 121.769 253.831C124.455 256.249 126.235 259.54 127.108 263.704L125.496 263.2L126.201 261.588C127.075 259.842 128.384 258.096 130.13 256.35C131.944 254.537 134.093 253.059 136.578 251.917C139.063 250.708 141.715 250.104 144.536 250.104C149.17 250.104 152.763 251.111 155.315 253.126C157.867 255.074 159.647 257.727 160.655 261.085C161.662 264.376 162.166 268.069 162.166 272.166V298.862C162.166 300.34 161.696 301.582 160.755 302.59C159.815 303.53 158.606 304 157.129 304C155.718 304 154.509 303.53 153.502 302.59C152.562 301.582 152.092 300.34 152.092 298.862V272.267C152.092 269.916 151.756 267.767 151.084 265.819C150.48 263.872 149.372 262.327 147.76 261.185C146.215 259.977 144.066 259.372 141.312 259.372C138.693 259.372 136.343 259.977 134.261 261.185C132.246 262.327 130.668 263.872 129.526 265.819C128.384 267.767 127.813 269.916 127.813 272.267V298.862C127.813 300.34 127.343 301.582 126.403 302.59C125.463 303.53 124.254 304 122.776 304C121.299 304 120.09 303.53 119.15 302.59C118.209 301.582 117.739 300.34 117.739 298.862V272.166C117.739 269.816 117.403 267.666 116.732 265.719C116.127 263.771 115.053 262.226 113.508 261.085C111.964 259.943 109.814 259.372 107.061 259.372C104.442 259.372 102.125 259.943 100.11 261.085C98.0949 262.226 96.5167 263.771 95.375 265.719C94.3004 267.666 93.7631 269.816 93.7631 272.166V298.862C93.7631 300.34 93.2594 301.582 92.252 302.59C91.3118 303.53 90.1365 304 88.7261 304C87.2486 304 86.0397 303.53 85.0995 302.59C84.1592 301.582 83.6891 300.34 83.6891 298.862V256.148C83.6891 254.671 84.1592 253.462 85.0995 252.522C86.0397 251.514 87.2486 251.011 88.7261 251.011C90.1365 251.011 91.3118 251.514 92.252 252.522C93.2594 253.462 93.7631 254.671 93.7631 256.148V262.092L91.8491 263.2C92.3192 261.723 93.0915 260.212 94.1661 258.667C95.2406 257.122 96.5838 255.712 98.1957 254.436C99.8747 253.16 101.722 252.119 103.736 251.313C105.751 250.507 107.934 250.104 110.285 250.104ZM219.683 250.205C221.16 250.205 222.369 250.708 223.309 251.716C224.25 252.656 224.72 253.865 224.72 255.342V298.862C224.72 300.34 224.25 301.582 223.309 302.59C222.369 303.53 221.16 304 219.683 304C218.272 304 217.064 303.53 216.056 302.59C215.116 301.582 214.646 300.34 214.646 298.862V291.609L216.761 291.911C216.761 293.12 216.258 294.463 215.25 295.941C214.31 297.418 213 298.862 211.321 300.273C209.642 301.616 207.661 302.758 205.378 303.698C203.094 304.571 200.643 305.007 198.024 305.007C193.39 305.007 189.226 303.832 185.532 301.481C181.838 299.064 178.917 295.773 176.768 291.609C174.618 287.445 173.544 282.71 173.544 277.405C173.544 271.965 174.618 267.196 176.768 263.099C178.917 258.936 181.805 255.678 185.431 253.328C189.125 250.977 193.222 249.802 197.721 249.802C200.609 249.802 203.262 250.272 205.68 251.212C208.165 252.152 210.314 253.361 212.127 254.839C213.941 256.316 215.317 257.895 216.258 259.574C217.265 261.185 217.769 262.73 217.769 264.208L214.646 264.51V255.342C214.646 253.932 215.116 252.723 216.056 251.716C217.064 250.708 218.272 250.205 219.683 250.205ZM199.132 295.739C202.288 295.739 205.075 294.933 207.493 293.322C209.911 291.71 211.792 289.527 213.135 286.773C214.478 283.953 215.15 280.83 215.15 277.405C215.15 273.912 214.478 270.789 213.135 268.036C211.792 265.282 209.911 263.099 207.493 261.488C205.075 259.876 202.288 259.07 199.132 259.07C196.042 259.07 193.289 259.876 190.871 261.488C188.521 263.099 186.64 265.282 185.23 268.036C183.886 270.789 183.215 273.912 183.215 277.405C183.215 280.83 183.886 283.953 185.23 286.773C186.64 289.527 188.521 291.71 190.871 293.322C193.289 294.933 196.042 295.739 199.132 295.739ZM265.529 250.104C270.163 250.104 273.756 251.111 276.308 253.126C278.86 255.074 280.64 257.727 281.647 261.085C282.722 264.443 283.259 268.136 283.259 272.166V298.862C283.259 300.34 282.756 301.582 281.748 302.59C280.808 303.53 279.633 304 278.222 304C276.745 304 275.536 303.53 274.596 302.59C273.655 301.582 273.185 300.34 273.185 298.862V272.166C273.185 269.816 272.849 267.666 272.178 265.719C271.573 263.771 270.465 262.226 268.853 261.085C267.309 259.943 265.126 259.372 262.305 259.372C259.686 259.372 257.336 259.943 255.254 261.085C253.239 262.226 251.66 263.771 250.519 265.719C249.444 267.666 248.907 269.816 248.907 272.166V298.862C248.907 300.34 248.403 301.582 247.396 302.59C246.456 303.53 245.28 304 243.87 304C242.392 304 241.183 303.53 240.243 302.59C239.303 301.582 238.833 300.34 238.833 298.862V234.59C238.833 233.113 239.303 231.904 240.243 230.963C241.183 229.956 242.392 229.452 243.87 229.452C245.28 229.452 246.456 229.956 247.396 230.963C248.403 231.904 248.907 233.113 248.907 234.59V262.092L247.094 263.099C247.564 261.622 248.336 260.111 249.411 258.566C250.552 257.021 251.929 255.611 253.541 254.335C255.22 253.059 257.067 252.052 259.082 251.313C261.096 250.507 263.246 250.104 265.529 250.104ZM375.577 304.101C374.033 304.101 372.79 303.463 371.85 302.187L346.766 269.849L354.523 261.991L380.111 295.336C380.917 296.411 381.32 297.586 381.32 298.862C381.32 300.474 380.715 301.75 379.506 302.69C378.297 303.631 376.988 304.101 375.577 304.101ZM376.081 233.18C377.424 233.18 378.532 233.717 379.406 234.792C380.279 235.866 380.715 236.974 380.715 238.116C380.715 239.325 380.211 240.433 379.204 241.44L335.785 282.643L335.181 270.756L372.052 235.094C373.26 233.818 374.604 233.18 376.081 233.18ZM331.655 304C330.11 304 328.834 303.53 327.827 302.59C326.886 301.582 326.416 300.34 326.416 298.862V238.62C326.416 237.142 326.92 235.933 327.927 234.993C328.935 233.986 330.244 233.482 331.856 233.482C333.401 233.482 334.643 233.986 335.584 234.993C336.524 235.933 336.994 237.142 336.994 238.62V298.862C336.927 300.34 336.423 301.582 335.483 302.59C334.543 303.53 333.267 304 331.655 304ZM430.319 251.011C431.729 251.011 432.904 251.514 433.845 252.522C434.852 253.462 435.356 254.671 435.356 256.148V282.643C435.356 289.628 433.408 295.101 429.513 299.064C425.617 302.959 420.11 304.907 412.991 304.907C405.94 304.907 400.466 302.959 396.571 299.064C392.743 295.101 390.829 289.628 390.829 282.643V256.148C390.829 254.671 391.299 253.462 392.239 252.522C393.179 251.514 394.388 251.011 395.866 251.011C397.276 251.011 398.451 251.514 399.391 252.522C400.399 253.462 400.903 254.671 400.903 256.148V282.643C400.903 287.008 401.91 290.266 403.925 292.415C406.007 294.564 409.029 295.639 412.991 295.639C417.021 295.639 420.077 294.564 422.159 292.415C424.241 290.266 425.282 287.008 425.282 282.643V256.148C425.282 254.671 425.752 253.462 426.692 252.522C427.632 251.514 428.841 251.011 430.319 251.011ZM476.665 249.802C481.433 249.802 485.127 250.809 487.746 252.824C490.365 254.772 492.179 257.424 493.186 260.782C494.261 264.073 494.798 267.767 494.798 271.864V298.862C494.798 300.34 494.294 301.582 493.287 302.59C492.347 303.53 491.171 304 489.761 304C488.283 304 487.075 303.53 486.134 302.59C485.194 301.582 484.724 300.34 484.724 298.862V271.965C484.724 269.547 484.388 267.398 483.716 265.517C483.045 263.57 481.87 262.025 480.191 260.883C478.579 259.674 476.295 259.07 473.34 259.07C470.587 259.07 468.169 259.674 466.087 260.883C464.005 262.025 462.36 263.57 461.151 265.517C460.009 267.398 459.438 269.547 459.438 271.965V298.862C459.438 300.34 458.934 301.582 457.927 302.59C456.987 303.53 455.811 304 454.401 304C452.924 304 451.715 303.53 450.774 302.59C449.834 301.582 449.364 300.34 449.364 298.862V256.148C449.364 254.671 449.834 253.462 450.774 252.522C451.715 251.514 452.924 251.011 454.401 251.011C455.811 251.011 456.987 251.514 457.927 252.522C458.934 253.462 459.438 254.671 459.438 256.148V261.79L457.625 262.797C458.095 261.32 458.901 259.842 460.043 258.365C461.251 256.82 462.695 255.41 464.374 254.134C466.053 252.79 467.934 251.749 470.016 251.011C472.098 250.205 474.314 249.802 476.665 249.802ZM532.258 249.802C535.884 249.802 539.108 250.205 541.929 251.011C544.749 251.749 546.932 252.824 548.477 254.234C550.089 255.578 550.894 257.156 550.894 258.969C550.894 260.111 550.559 261.185 549.887 262.193C549.215 263.133 548.208 263.603 546.865 263.603C545.925 263.603 545.119 263.435 544.447 263.099C543.843 262.764 543.272 262.361 542.734 261.891C542.197 261.42 541.526 260.95 540.72 260.48C539.981 260.077 538.873 259.741 537.395 259.473C535.985 259.204 534.709 259.07 533.567 259.07C530.008 259.07 526.918 259.876 524.299 261.488C521.747 263.099 519.732 265.282 518.255 268.036C516.844 270.789 516.139 273.912 516.139 277.405C516.139 280.897 516.844 284.02 518.255 286.773C519.732 289.527 521.713 291.71 524.198 293.322C526.75 294.933 529.705 295.739 533.063 295.739C535.078 295.739 536.724 295.605 538 295.336C539.276 295.001 540.384 294.598 541.324 294.127C542.332 293.523 543.171 292.919 543.843 292.314C544.581 291.643 545.589 291.307 546.865 291.307C548.342 291.307 549.451 291.777 550.189 292.717C550.995 293.59 551.398 294.698 551.398 296.042C551.398 297.519 550.491 298.963 548.678 300.373C546.932 301.717 544.581 302.825 541.626 303.698C538.671 304.571 535.414 305.007 531.855 305.007C526.616 305.007 522.049 303.799 518.154 301.381C514.326 298.963 511.337 295.672 509.188 291.508C507.106 287.344 506.065 282.643 506.065 277.405C506.065 272.099 507.173 267.398 509.389 263.301C511.606 259.137 514.695 255.846 518.658 253.428C522.62 251.011 527.153 249.802 532.258 249.802ZM570.494 298.862C570.494 300.34 570.024 301.582 569.084 302.59C568.143 303.53 566.934 304 565.457 304C564.047 304 562.838 303.53 561.83 302.59C560.89 301.582 560.42 300.34 560.42 298.862V255.745C560.42 254.268 560.89 253.059 561.83 252.119C562.838 251.111 564.047 250.608 565.457 250.608C566.934 250.608 568.143 251.111 569.084 252.119C570.024 253.059 570.494 254.268 570.494 255.745V298.862ZM565.356 243.959C563.409 243.959 561.998 243.623 561.125 242.951C560.252 242.213 559.815 241.004 559.815 239.325V237.713C559.815 236.034 560.286 234.859 561.226 234.187C562.166 233.515 563.576 233.18 565.457 233.18C567.472 233.18 568.916 233.549 569.789 234.288C570.662 234.959 571.098 236.101 571.098 237.713V239.325C571.098 241.071 570.628 242.28 569.688 242.951C568.815 243.623 567.371 243.959 565.356 243.959Z" fill="black" fill-opacity="0.6"/>
<circle cx="305.597" cy="98.5967" r="83.5967" fill="#E61A2D"/>
<rect x="307.179" y="79" width="139.394" height="29.951" transform="rotate(45 307.179 79)" fill="#FAE511"/>
<rect x="286" y="98.5667" width="139.394" height="29.951" transform="rotate(-45 286 98.5667)" fill="#FAE511"/>
<path d="M79.4322 264.741C79.4322 269.845 78.5927 274.613 76.9137 279.046C75.2347 283.411 72.8505 287.24 69.7611 290.53C66.7389 293.821 63.1459 296.407 58.9819 298.287C54.818 300.101 50.2511 301.007 45.2813 301.007C40.3786 301.007 35.8453 300.101 31.6813 298.287C27.5174 296.407 23.8908 293.821 20.8014 290.53C17.7792 287.24 15.4286 283.411 13.7496 279.046C12.1377 274.613 11.3318 269.845 11.3318 264.741C11.3318 259.637 12.1377 254.902 13.7496 250.537C15.4286 246.104 17.7792 242.242 20.8014 238.951C23.8908 235.661 27.5174 233.109 31.6813 231.295C35.8453 229.415 40.3786 228.474 45.2813 228.474C50.2511 228.474 54.818 229.415 58.9819 231.295C63.1459 233.109 66.7389 235.661 69.7611 238.951C72.8505 242.242 75.2347 246.104 76.9137 250.537C78.5927 254.902 79.4322 259.637 79.4322 264.741ZM68.5522 264.741C68.5522 259.771 67.5448 255.305 65.53 251.342C63.5824 247.38 60.8624 244.257 57.3701 241.974C53.8778 239.69 49.8482 238.548 45.2813 238.548C40.7815 238.548 36.7855 239.69 33.2932 241.974C29.8009 244.257 27.0809 247.38 25.1332 251.342C23.1856 255.238 22.2118 259.704 22.2118 264.741C22.2118 269.711 23.1856 274.177 25.1332 278.139C27.0809 282.102 29.8009 285.225 33.2932 287.508C36.7855 289.792 40.7815 290.933 45.2813 290.933C49.8482 290.933 53.8778 289.792 57.3701 287.508C60.8624 285.225 63.5824 282.102 65.53 278.139C67.5448 274.177 68.5522 269.711 68.5522 264.741ZM117.285 246.104C122.254 246.104 126.082 247.346 128.769 249.831C131.455 252.249 133.235 255.54 134.108 259.704L132.496 259.2L133.201 257.588C134.075 255.842 135.384 254.096 137.13 252.35C138.944 250.537 141.093 249.059 143.578 247.917C146.063 246.708 148.715 246.104 151.536 246.104C156.17 246.104 159.763 247.111 162.315 249.126C164.867 251.074 166.647 253.727 167.655 257.085C168.662 260.376 169.166 264.069 169.166 268.166V294.862C169.166 296.34 168.696 297.582 167.755 298.59C166.815 299.53 165.606 300 164.129 300C162.718 300 161.509 299.53 160.502 298.59C159.562 297.582 159.092 296.34 159.092 294.862V268.267C159.092 265.916 158.756 263.767 158.084 261.819C157.48 259.872 156.372 258.327 154.76 257.185C153.215 255.977 151.066 255.372 148.312 255.372C145.693 255.372 143.343 255.977 141.261 257.185C139.246 258.327 137.668 259.872 136.526 261.819C135.384 263.767 134.813 265.916 134.813 268.267V294.862C134.813 296.34 134.343 297.582 133.403 298.59C132.463 299.53 131.254 300 129.776 300C128.299 300 127.09 299.53 126.15 298.59C125.209 297.582 124.739 296.34 124.739 294.862V268.166C124.739 265.816 124.403 263.666 123.732 261.719C123.127 259.771 122.053 258.226 120.508 257.085C118.964 255.943 116.814 255.372 114.061 255.372C111.442 255.372 109.125 255.943 107.11 257.085C105.095 258.226 103.517 259.771 102.375 261.719C101.3 263.666 100.763 265.816 100.763 268.166V294.862C100.763 296.34 100.259 297.582 99.252 298.59C98.3118 299.53 97.1365 300 95.7261 300C94.2486 300 93.0397 299.53 92.0995 298.59C91.1592 297.582 90.6891 296.34 90.6891 294.862V252.148C90.6891 250.671 91.1592 249.462 92.0995 248.522C93.0397 247.514 94.2486 247.011 95.7261 247.011C97.1365 247.011 98.3118 247.514 99.252 248.522C100.259 249.462 100.763 250.671 100.763 252.148V258.092L98.8491 259.2C99.3192 257.723 100.092 256.212 101.166 254.667C102.241 253.122 103.584 251.712 105.196 250.436C106.875 249.16 108.722 248.119 110.736 247.313C112.751 246.507 114.934 246.104 117.285 246.104ZM226.683 246.205C228.16 246.205 229.369 246.708 230.309 247.716C231.25 248.656 231.72 249.865 231.72 251.342V294.862C231.72 296.34 231.25 297.582 230.309 298.59C229.369 299.53 228.16 300 226.683 300C225.272 300 224.064 299.53 223.056 298.59C222.116 297.582 221.646 296.34 221.646 294.862V287.609L223.761 287.911C223.761 289.12 223.258 290.463 222.25 291.941C221.31 293.418 220 294.862 218.321 296.273C216.642 297.616 214.661 298.758 212.378 299.698C210.094 300.571 207.643 301.007 205.024 301.007C200.39 301.007 196.226 299.832 192.532 297.481C188.838 295.064 185.917 291.773 183.768 287.609C181.618 283.445 180.544 278.71 180.544 273.405C180.544 267.965 181.618 263.196 183.768 259.099C185.917 254.936 188.805 251.678 192.431 249.328C196.125 246.977 200.222 245.802 204.721 245.802C207.609 245.802 210.262 246.272 212.68 247.212C215.165 248.152 217.314 249.361 219.127 250.839C220.941 252.316 222.317 253.895 223.258 255.574C224.265 257.185 224.769 258.73 224.769 260.208L221.646 260.51V251.342C221.646 249.932 222.116 248.723 223.056 247.716C224.064 246.708 225.272 246.205 226.683 246.205ZM206.132 291.739C209.288 291.739 212.075 290.933 214.493 289.322C216.911 287.71 218.792 285.527 220.135 282.773C221.478 279.953 222.15 276.83 222.15 273.405C222.15 269.912 221.478 266.789 220.135 264.036C218.792 261.282 216.911 259.099 214.493 257.488C212.075 255.876 209.288 255.07 206.132 255.07C203.042 255.07 200.289 255.876 197.871 257.488C195.521 259.099 193.64 261.282 192.23 264.036C190.886 266.789 190.215 269.912 190.215 273.405C190.215 276.83 190.886 279.953 192.23 282.773C193.64 285.527 195.521 287.71 197.871 289.322C200.289 290.933 203.042 291.739 206.132 291.739ZM272.529 246.104C277.163 246.104 280.756 247.111 283.308 249.126C285.86 251.074 287.64 253.727 288.647 257.085C289.722 260.443 290.259 264.136 290.259 268.166V294.862C290.259 296.34 289.756 297.582 288.748 298.59C287.808 299.53 286.633 300 285.222 300C283.745 300 282.536 299.53 281.596 298.59C280.655 297.582 280.185 296.34 280.185 294.862V268.166C280.185 265.816 279.849 263.666 279.178 261.719C278.573 259.771 277.465 258.226 275.853 257.085C274.309 255.943 272.126 255.372 269.305 255.372C266.686 255.372 264.336 255.943 262.254 257.085C260.239 258.226 258.66 259.771 257.519 261.719C256.444 263.666 255.907 265.816 255.907 268.166V294.862C255.907 296.34 255.403 297.582 254.396 298.59C253.456 299.53 252.28 300 250.87 300C249.392 300 248.183 299.53 247.243 298.59C246.303 297.582 245.833 296.34 245.833 294.862V230.59C245.833 229.113 246.303 227.904 247.243 226.963C248.183 225.956 249.392 225.452 250.87 225.452C252.28 225.452 253.456 225.956 254.396 226.963C255.403 227.904 255.907 229.113 255.907 230.59V258.092L254.094 259.099C254.564 257.622 255.336 256.111 256.411 254.566C257.552 253.021 258.929 251.611 260.541 250.335C262.22 249.059 264.067 248.052 266.082 247.313C268.096 246.507 270.246 246.104 272.529 246.104ZM382.577 300.101C381.033 300.101 379.79 299.463 378.85 298.187L353.766 265.849L361.523 257.991L387.111 291.336C387.917 292.411 388.32 293.586 388.32 294.862C388.32 296.474 387.715 297.75 386.506 298.69C385.297 299.631 383.988 300.101 382.577 300.101ZM383.081 229.18C384.424 229.18 385.532 229.717 386.406 230.792C387.279 231.866 387.715 232.974 387.715 234.116C387.715 235.325 387.211 236.433 386.204 237.44L342.785 278.643L342.181 266.756L379.052 231.094C380.26 229.818 381.604 229.18 383.081 229.18ZM338.655 300C337.11 300 335.834 299.53 334.827 298.59C333.886 297.582 333.416 296.34 333.416 294.862V234.62C333.416 233.142 333.92 231.933 334.927 230.993C335.935 229.986 337.244 229.482 338.856 229.482C340.401 229.482 341.643 229.986 342.584 230.993C343.524 231.933 343.994 233.142 343.994 234.62V294.862C343.927 296.34 343.423 297.582 342.483 298.59C341.543 299.53 340.267 300 338.655 300ZM437.319 247.011C438.729 247.011 439.904 247.514 440.845 248.522C441.852 249.462 442.356 250.671 442.356 252.148V278.643C442.356 285.628 440.408 291.101 436.513 295.064C432.617 298.959 427.11 300.907 419.991 300.907C412.94 300.907 407.466 298.959 403.571 295.064C399.743 291.101 397.829 285.628 397.829 278.643V252.148C397.829 250.671 398.299 249.462 399.239 248.522C400.179 247.514 401.388 247.011 402.866 247.011C404.276 247.011 405.451 247.514 406.391 248.522C407.399 249.462 407.903 250.671 407.903 252.148V278.643C407.903 283.008 408.91 286.266 410.925 288.415C413.007 290.564 416.029 291.639 419.991 291.639C424.021 291.639 427.077 290.564 429.159 288.415C431.241 286.266 432.282 283.008 432.282 278.643V252.148C432.282 250.671 432.752 249.462 433.692 248.522C434.632 247.514 435.841 247.011 437.319 247.011ZM483.665 245.802C488.433 245.802 492.127 246.809 494.746 248.824C497.365 250.772 499.179 253.424 500.186 256.782C501.261 260.073 501.798 263.767 501.798 267.864V294.862C501.798 296.34 501.294 297.582 500.287 298.59C499.347 299.53 498.171 300 496.761 300C495.283 300 494.075 299.53 493.134 298.59C492.194 297.582 491.724 296.34 491.724 294.862V267.965C491.724 265.547 491.388 263.398 490.716 261.517C490.045 259.57 488.87 258.025 487.191 256.883C485.579 255.674 483.295 255.07 480.34 255.07C477.587 255.07 475.169 255.674 473.087 256.883C471.005 258.025 469.36 259.57 468.151 261.517C467.009 263.398 466.438 265.547 466.438 267.965V294.862C466.438 296.34 465.934 297.582 464.927 298.59C463.987 299.53 462.811 300 461.401 300C459.924 300 458.715 299.53 457.774 298.59C456.834 297.582 456.364 296.34 456.364 294.862V252.148C456.364 250.671 456.834 249.462 457.774 248.522C458.715 247.514 459.924 247.011 461.401 247.011C462.811 247.011 463.987 247.514 464.927 248.522C465.934 249.462 466.438 250.671 466.438 252.148V257.79L464.625 258.797C465.095 257.32 465.901 255.842 467.043 254.365C468.251 252.82 469.695 251.41 471.374 250.134C473.053 248.79 474.934 247.749 477.016 247.011C479.098 246.205 481.314 245.802 483.665 245.802ZM539.258 245.802C542.884 245.802 546.108 246.205 548.929 247.011C551.749 247.749 553.932 248.824 555.477 250.234C557.089 251.578 557.894 253.156 557.894 254.969C557.894 256.111 557.559 257.185 556.887 258.193C556.215 259.133 555.208 259.603 553.865 259.603C552.925 259.603 552.119 259.435 551.447 259.099C550.843 258.764 550.272 258.361 549.734 257.891C549.197 257.42 548.526 256.95 547.72 256.48C546.981 256.077 545.873 255.741 544.395 255.473C542.985 255.204 541.709 255.07 540.567 255.07C537.008 255.07 533.918 255.876 531.299 257.488C528.747 259.099 526.732 261.282 525.255 264.036C523.844 266.789 523.139 269.912 523.139 273.405C523.139 276.897 523.844 280.02 525.255 282.773C526.732 285.527 528.713 287.71 531.198 289.322C533.75 290.933 536.705 291.739 540.063 291.739C542.078 291.739 543.724 291.605 545 291.336C546.276 291.001 547.384 290.598 548.324 290.127C549.332 289.523 550.171 288.919 550.843 288.314C551.581 287.643 552.589 287.307 553.865 287.307C555.342 287.307 556.451 287.777 557.189 288.717C557.995 289.59 558.398 290.698 558.398 292.042C558.398 293.519 557.491 294.963 555.678 296.373C553.932 297.717 551.581 298.825 548.626 299.698C545.671 300.571 542.414 301.007 538.855 301.007C533.616 301.007 529.049 299.799 525.154 297.381C521.326 294.963 518.337 291.672 516.188 287.508C514.106 283.344 513.065 278.643 513.065 273.405C513.065 268.099 514.173 263.398 516.389 259.301C518.606 255.137 521.695 251.846 525.658 249.428C529.62 247.011 534.153 245.802 539.258 245.802ZM577.494 294.862C577.494 296.34 577.024 297.582 576.084 298.59C575.143 299.53 573.934 300 572.457 300C571.047 300 569.838 299.53 568.83 298.59C567.89 297.582 567.42 296.34 567.42 294.862V251.745C567.42 250.268 567.89 249.059 568.83 248.119C569.838 247.111 571.047 246.608 572.457 246.608C573.934 246.608 575.143 247.111 576.084 248.119C577.024 249.059 577.494 250.268 577.494 251.745V294.862ZM572.356 239.959C570.409 239.959 568.998 239.623 568.125 238.951C567.252 238.213 566.815 237.004 566.815 235.325V233.713C566.815 232.034 567.286 230.859 568.226 230.187C569.166 229.515 570.576 229.18 572.457 229.18C574.472 229.18 575.916 229.549 576.789 230.288C577.662 230.959 578.098 232.101 578.098 233.713V235.325C578.098 237.071 577.628 238.28 576.688 238.951C575.815 239.623 574.371 239.959 572.356 239.959Z" fill="#FAE511"/>
</svg>
