<svg width="854" height="199" viewBox="0 0 854 199" fill="none" xmlns="http://www.w3.org/2000/svg">
<circle cx="83.5967" cy="98.5967" r="83.5967" fill="#E61A2D"/>
<rect x="85.1785" y="79" width="139.394" height="29.951" transform="rotate(45 85.1785 79)" fill="#FAE511"/>
<rect x="64" y="98.5666" width="139.394" height="29.951" transform="rotate(-45 64 98.5666)" fill="#FAE511"/>
<path d="M313.432 100.741C313.432 105.845 312.593 110.613 310.914 115.046C309.235 119.411 306.85 123.24 303.761 126.53C300.739 129.821 297.146 132.407 292.982 134.287C288.818 136.101 284.251 137.007 279.281 137.007C274.379 137.007 269.845 136.101 265.681 134.287C261.517 132.407 257.891 129.821 254.801 126.53C251.779 123.24 249.429 119.411 247.75 115.046C246.138 110.613 245.332 105.845 245.332 100.741C245.332 95.6368 246.138 90.902 247.75 86.5366C249.429 82.104 251.779 78.2423 254.801 74.9515C257.891 71.6606 261.517 69.1085 265.681 67.2952C269.845 65.4147 274.379 64.4745 279.281 64.4745C284.251 64.4745 288.818 65.4147 292.982 67.2952C297.146 69.1085 300.739 71.6606 303.761 74.9515C306.85 78.2423 309.235 82.104 310.914 86.5366C312.593 90.902 313.432 95.6368 313.432 100.741ZM302.552 100.741C302.552 95.7711 301.545 91.305 299.53 87.3425C297.582 83.3801 294.862 80.2571 291.37 77.9737C287.878 75.6902 283.848 74.5485 279.281 74.5485C274.782 74.5485 270.786 75.6902 267.293 77.9737C263.801 80.2571 261.081 83.3801 259.133 87.3425C257.186 91.2378 256.212 95.7039 256.212 100.741C256.212 105.711 257.186 110.177 259.133 114.139C261.081 118.102 263.801 121.225 267.293 123.508C270.786 125.792 274.782 126.933 279.281 126.933C283.848 126.933 287.878 125.792 291.37 123.508C294.862 121.225 297.582 118.102 299.53 114.139C301.545 110.177 302.552 105.711 302.552 100.741ZM351.285 82.104C356.254 82.104 360.082 83.3465 362.769 85.8314C365.455 88.2492 367.235 91.54 368.108 95.7039L366.496 95.2002L367.201 93.5884C368.075 91.8422 369.384 90.0961 371.13 88.3499C372.944 86.5366 375.093 85.0591 377.578 83.9173C380.063 82.7085 382.715 82.104 385.536 82.104C390.17 82.104 393.763 83.1114 396.315 85.1262C398.867 87.0739 400.647 89.7267 401.655 93.0847C402.662 96.3755 403.166 100.069 403.166 104.166V130.862C403.166 132.34 402.696 133.582 401.755 134.59C400.815 135.53 399.606 136 398.129 136C396.718 136 395.509 135.53 394.502 134.59C393.562 133.582 393.092 132.34 393.092 130.862V104.267C393.092 101.916 392.756 99.7671 392.084 97.8195C391.48 95.8718 390.372 94.3272 388.76 93.1854C387.215 91.9766 385.066 91.3721 382.312 91.3721C379.693 91.3721 377.343 91.9766 375.261 93.1854C373.246 94.3272 371.668 95.8718 370.526 97.8195C369.384 99.7671 368.813 101.916 368.813 104.267V130.862C368.813 132.34 368.343 133.582 367.403 134.59C366.463 135.53 365.254 136 363.776 136C362.299 136 361.09 135.53 360.15 134.59C359.209 133.582 358.739 132.34 358.739 130.862V104.166C358.739 101.816 358.403 99.6664 357.732 97.7187C357.127 95.7711 356.053 94.2264 354.508 93.0847C352.964 91.943 350.814 91.3721 348.061 91.3721C345.442 91.3721 343.125 91.943 341.11 93.0847C339.095 94.2264 337.517 95.7711 336.375 97.7187C335.3 99.6664 334.763 101.816 334.763 104.166V130.862C334.763 132.34 334.259 133.582 333.252 134.59C332.312 135.53 331.136 136 329.726 136C328.249 136 327.04 135.53 326.099 134.59C325.159 133.582 324.689 132.34 324.689 130.862V88.1484C324.689 86.6709 325.159 85.462 326.099 84.5218C327.04 83.5144 328.249 83.0107 329.726 83.0107C331.136 83.0107 332.312 83.5144 333.252 84.5218C334.259 85.462 334.763 86.6709 334.763 88.1484V94.0921L332.849 95.2002C333.319 93.7227 334.092 92.2116 335.166 90.6669C336.241 89.1223 337.584 87.7119 339.196 86.4359C340.875 85.1598 342.722 84.1188 344.736 83.3129C346.751 82.507 348.934 82.104 351.285 82.104ZM460.683 82.2048C462.16 82.2048 463.369 82.7085 464.309 83.7159C465.25 84.6561 465.72 85.865 465.72 87.3425V130.862C465.72 132.34 465.25 133.582 464.309 134.59C463.369 135.53 462.16 136 460.683 136C459.272 136 458.064 135.53 457.056 134.59C456.116 133.582 455.646 132.34 455.646 130.862V123.609L457.761 123.911C457.761 125.12 457.258 126.463 456.25 127.941C455.31 129.418 454 130.862 452.321 132.273C450.642 133.616 448.661 134.758 446.378 135.698C444.094 136.571 441.643 137.007 439.024 137.007C434.39 137.007 430.226 135.832 426.532 133.482C422.838 131.064 419.917 127.773 417.768 123.609C415.618 119.445 414.544 114.71 414.544 109.405C414.544 103.965 415.618 99.1963 417.768 95.0995C419.917 90.9356 422.805 87.6783 426.431 85.3277C430.125 82.9771 434.222 81.8018 438.721 81.8018C441.609 81.8018 444.262 82.2719 446.68 83.2122C449.165 84.1524 451.314 85.3613 453.127 86.8388C454.941 88.3163 456.317 89.8946 457.258 91.5736C458.265 93.1854 458.769 94.7301 458.769 96.2076L455.646 96.5099V87.3425C455.646 85.9322 456.116 84.7233 457.056 83.7159C458.064 82.7085 459.272 82.2048 460.683 82.2048ZM440.132 127.739C443.288 127.739 446.075 126.933 448.493 125.322C450.911 123.71 452.792 121.527 454.135 118.773C455.478 115.953 456.15 112.83 456.15 109.405C456.15 105.912 455.478 102.789 454.135 100.036C452.792 97.2822 450.911 95.0995 448.493 93.4877C446.075 91.8758 443.288 91.0699 440.132 91.0699C437.042 91.0699 434.289 91.8758 431.871 93.4877C429.521 95.0995 427.64 97.2822 426.23 100.036C424.886 102.789 424.215 105.912 424.215 109.405C424.215 112.83 424.886 115.953 426.23 118.773C427.64 121.527 429.521 123.71 431.871 125.322C434.289 126.933 437.042 127.739 440.132 127.739ZM506.529 82.104C511.163 82.104 514.756 83.1114 517.308 85.1262C519.86 87.0739 521.64 89.7267 522.647 93.0847C523.722 96.4427 524.259 100.137 524.259 104.166V130.862C524.259 132.34 523.756 133.582 522.748 134.59C521.808 135.53 520.633 136 519.222 136C517.745 136 516.536 135.53 515.596 134.59C514.655 133.582 514.185 132.34 514.185 130.862V104.166C514.185 101.816 513.849 99.6664 513.178 97.7187C512.573 95.7711 511.465 94.2264 509.853 93.0847C508.309 91.943 506.126 91.3721 503.305 91.3721C500.686 91.3721 498.336 91.943 496.254 93.0847C494.239 94.2264 492.66 95.7711 491.519 97.7187C490.444 99.6664 489.907 101.816 489.907 104.166V130.862C489.907 132.34 489.403 133.582 488.396 134.59C487.456 135.53 486.28 136 484.87 136C483.392 136 482.183 135.53 481.243 134.59C480.303 133.582 479.833 132.34 479.833 130.862V66.59C479.833 65.1125 480.303 63.9036 481.243 62.9634C482.183 61.956 483.392 61.4523 484.87 61.4523C486.28 61.4523 487.456 61.956 488.396 62.9634C489.403 63.9036 489.907 65.1125 489.907 66.59V94.0921L488.094 95.0995C488.564 93.622 489.336 92.1109 490.411 90.5662C491.552 89.0215 492.929 87.6112 494.541 86.3351C496.22 85.0591 498.067 84.0517 500.082 83.3129C502.096 82.507 504.246 82.104 506.529 82.104ZM616.577 136.101C615.033 136.101 613.79 135.463 612.85 134.187L587.766 101.849L595.523 93.9914L621.111 127.336C621.917 128.411 622.32 129.586 622.32 130.862C622.32 132.474 621.715 133.75 620.506 134.69C619.297 135.631 617.988 136.101 616.577 136.101ZM617.081 65.1797C618.424 65.1797 619.532 65.717 620.406 66.7915C621.279 67.8661 621.715 68.9742 621.715 70.1159C621.715 71.3248 621.211 72.433 620.204 73.4404L576.785 114.643L576.181 102.756L613.052 67.0937C614.26 65.8177 615.604 65.1797 617.081 65.1797ZM572.655 136C571.11 136 569.834 135.53 568.827 134.59C567.886 133.582 567.416 132.34 567.416 130.862V70.6196C567.416 69.1421 567.92 67.9332 568.927 66.993C569.935 65.9856 571.244 65.4819 572.856 65.4819C574.401 65.4819 575.643 65.9856 576.584 66.993C577.524 67.9332 577.994 69.1421 577.994 70.6196V130.862C577.927 132.34 577.423 133.582 576.483 134.59C575.543 135.53 574.267 136 572.655 136ZM671.319 83.0107C672.729 83.0107 673.904 83.5144 674.845 84.5218C675.852 85.462 676.356 86.6709 676.356 88.1484V114.643C676.356 121.628 674.408 127.101 670.513 131.064C666.617 134.959 661.11 136.907 653.991 136.907C646.94 136.907 641.466 134.959 637.571 131.064C633.743 127.101 631.829 121.628 631.829 114.643V88.1484C631.829 86.6709 632.299 85.462 633.239 84.5218C634.179 83.5144 635.388 83.0107 636.866 83.0107C638.276 83.0107 639.451 83.5144 640.391 84.5218C641.399 85.462 641.903 86.6709 641.903 88.1484V114.643C641.903 119.009 642.91 122.266 644.925 124.415C647.007 126.564 650.029 127.639 653.991 127.639C658.021 127.639 661.077 126.564 663.159 124.415C665.241 122.266 666.282 119.009 666.282 114.643V88.1484C666.282 86.6709 666.752 85.462 667.692 84.5218C668.632 83.5144 669.841 83.0107 671.319 83.0107ZM717.665 81.8018C722.433 81.8018 726.127 82.8092 728.746 84.824C731.365 86.7717 733.179 89.4245 734.186 92.7825C735.261 96.0733 735.798 99.7671 735.798 103.864V130.862C735.798 132.34 735.294 133.582 734.287 134.59C733.347 135.53 732.171 136 730.761 136C729.283 136 728.075 135.53 727.134 134.59C726.194 133.582 725.724 132.34 725.724 130.862V103.965C725.724 101.547 725.388 99.3978 724.716 97.5173C724.045 95.5696 722.87 94.0249 721.191 92.8832C719.579 91.6743 717.295 91.0699 714.34 91.0699C711.587 91.0699 709.169 91.6743 707.087 92.8832C705.005 94.0249 703.36 95.5696 702.151 97.5173C701.009 99.3978 700.438 101.547 700.438 103.965V130.862C700.438 132.34 699.934 133.582 698.927 134.59C697.987 135.53 696.811 136 695.401 136C693.924 136 692.715 135.53 691.774 134.59C690.834 133.582 690.364 132.34 690.364 130.862V88.1484C690.364 86.6709 690.834 85.462 691.774 84.5218C692.715 83.5144 693.924 83.0107 695.401 83.0107C696.811 83.0107 697.987 83.5144 698.927 84.5218C699.934 85.462 700.438 86.6709 700.438 88.1484V93.7899L698.625 94.7973C699.095 93.3198 699.901 91.8422 701.043 90.3647C702.251 88.82 703.695 87.4097 705.374 86.1336C707.053 84.7904 708.934 83.7494 711.016 83.0107C713.098 82.2048 715.314 81.8018 717.665 81.8018ZM773.258 81.8018C776.884 81.8018 780.108 82.2048 782.929 83.0107C785.749 83.7494 787.932 84.824 789.477 86.2344C791.089 87.5776 791.894 89.1558 791.894 90.9692C791.894 92.1109 791.559 93.1854 790.887 94.1928C790.215 95.1331 789.208 95.6032 787.865 95.6032C786.925 95.6032 786.119 95.4353 785.447 95.0995C784.843 94.7637 784.272 94.3607 783.734 93.8906C783.197 93.4205 782.526 92.9504 781.72 92.4803C780.981 92.0773 779.873 91.7415 778.395 91.4729C776.985 91.2042 775.709 91.0699 774.567 91.0699C771.008 91.0699 767.918 91.8758 765.299 93.4877C762.747 95.0995 760.732 97.2822 759.255 100.036C757.844 102.789 757.139 105.912 757.139 109.405C757.139 112.897 757.844 116.02 759.255 118.773C760.732 121.527 762.713 123.71 765.198 125.322C767.75 126.933 770.705 127.739 774.063 127.739C776.078 127.739 777.724 127.605 779 127.336C780.276 127.001 781.384 126.598 782.324 126.127C783.332 125.523 784.171 124.919 784.843 124.314C785.581 123.643 786.589 123.307 787.865 123.307C789.342 123.307 790.451 123.777 791.189 124.717C791.995 125.59 792.398 126.698 792.398 128.042C792.398 129.519 791.491 130.963 789.678 132.373C787.932 133.717 785.581 134.825 782.626 135.698C779.671 136.571 776.414 137.007 772.855 137.007C767.616 137.007 763.049 135.799 759.154 133.381C755.326 130.963 752.337 127.672 750.188 123.508C748.106 119.344 747.065 114.643 747.065 109.405C747.065 104.099 748.173 99.3978 750.389 95.301C752.606 91.1371 755.695 87.8462 759.658 85.4284C763.62 83.0107 768.153 81.8018 773.258 81.8018ZM811.494 130.862C811.494 132.34 811.024 133.582 810.084 134.59C809.143 135.53 807.934 136 806.457 136C805.047 136 803.838 135.53 802.83 134.59C801.89 133.582 801.42 132.34 801.42 130.862V87.7455C801.42 86.2679 801.89 85.0591 802.83 84.1188C803.838 83.1114 805.047 82.6077 806.457 82.6077C807.934 82.6077 809.143 83.1114 810.084 84.1188C811.024 85.0591 811.494 86.2679 811.494 87.7455V130.862ZM806.356 75.9589C804.409 75.9589 802.998 75.6231 802.125 74.9515C801.252 74.2127 800.815 73.0038 800.815 71.3248V69.713C800.815 68.034 801.286 66.8587 802.226 66.1871C803.166 65.5155 804.576 65.1797 806.457 65.1797C808.472 65.1797 809.916 65.5491 810.789 66.2878C811.662 66.9594 812.098 68.1011 812.098 69.713V71.3248C812.098 73.071 811.628 74.2799 810.688 74.9515C809.815 75.6231 808.371 75.9589 806.356 75.9589Z" fill="#FAE511"/>
</svg>
