<svg width="467" height="102" viewBox="0 0 467 102" fill="none" xmlns="http://www.w3.org/2000/svg">
<ellipse cx="43" cy="50.5" rx="43" ry="42.5" fill="black" fill-opacity="0.51"/>
<rect x="35.2363" y="50.5511" width="71.4901" height="10.7618" transform="rotate(-45 35.2363 50.5511)" fill="#3A3A3A"/>
<rect x="42.8459" y="42.9093" width="71.4897" height="10.7618" transform="rotate(45 42.8459 42.9093)" fill="#3A3A3A"/>
<path d="M154.928 54.103C154.928 57.0883 154.431 59.8745 153.436 62.4618C152.441 65.049 151.028 67.3378 149.197 69.328C147.406 71.2783 145.256 72.8108 142.748 73.9253C140.281 75.0398 137.574 75.5971 134.628 75.5971C131.683 75.5971 128.976 75.0398 126.509 73.9253C124.041 72.8108 121.891 71.2783 120.06 69.328C118.269 67.3378 116.876 65.049 115.881 62.4618C114.886 59.8745 114.388 57.0883 114.388 54.103C114.388 51.1177 114.886 48.3314 115.881 45.7442C116.876 43.1569 118.269 40.8881 120.06 38.9377C121.891 36.9475 124.041 35.3952 126.509 34.2807C128.976 33.1662 131.683 32.6089 134.628 32.6089C137.574 32.6089 140.281 33.1662 142.748 34.2807C145.256 35.3952 147.406 36.9475 149.197 38.9377C151.028 40.8881 152.441 43.1569 153.436 45.7442C154.431 48.3314 154.928 51.1177 154.928 54.103ZM147.167 54.103C147.167 51.4361 146.629 49.028 145.555 46.8786C144.48 44.6894 143.007 42.9579 141.136 41.6842C139.266 40.4105 137.096 39.7736 134.628 39.7736C132.161 39.7736 129.991 40.4105 128.121 41.6842C126.25 42.9579 124.777 44.6695 123.702 46.8189C122.667 48.9683 122.15 51.3963 122.15 54.103C122.15 56.7698 122.667 59.1979 123.702 61.3871C124.777 63.5365 126.25 65.2481 128.121 66.5218C129.991 67.7955 132.161 68.4324 134.628 68.4324C137.096 68.4324 139.266 67.7955 141.136 66.5218C143.007 65.2481 144.48 63.5365 145.555 61.3871C146.629 59.1979 147.167 56.7698 147.167 54.103ZM177.962 42.4604C181.147 42.4604 183.495 43.2365 185.008 44.7889C186.52 46.3014 187.515 48.2717 187.993 50.6998L186.978 50.1624L187.455 49.2071C187.933 48.2916 188.67 47.3164 189.665 46.2815C190.66 45.2068 191.854 44.3112 193.247 43.5948C194.68 42.8385 196.272 42.4604 198.023 42.4604C200.889 42.4604 203.059 43.0773 204.531 44.3112C206.044 45.5452 207.079 47.197 207.636 49.2668C208.193 51.2968 208.472 53.5656 208.472 56.0733V71.3579C208.472 72.3928 208.134 73.2685 207.457 73.985C206.78 74.6617 205.924 75 204.89 75C203.855 75 202.999 74.6617 202.322 73.985C201.646 73.2685 201.307 72.3928 201.307 71.3579V56.0733C201.307 54.7597 201.148 53.5855 200.83 52.5506C200.511 51.4759 199.934 50.6201 199.098 49.9833C198.262 49.3464 197.068 49.028 195.516 49.028C194.003 49.028 192.71 49.3464 191.635 49.9833C190.56 50.6201 189.744 51.4759 189.187 52.5506C188.67 53.5855 188.411 54.7597 188.411 56.0733V71.3579C188.411 72.3928 188.072 73.2685 187.396 73.985C186.719 74.6617 185.863 75 184.828 75C183.794 75 182.938 74.6617 182.261 73.985C181.584 73.2685 181.246 72.3928 181.246 71.3579V56.0733C181.246 54.7597 181.087 53.5855 180.768 52.5506C180.45 51.4759 179.873 50.6201 179.037 49.9833C178.201 49.3464 177.007 49.028 175.455 49.028C173.942 49.028 172.648 49.3464 171.574 49.9833C170.499 50.6201 169.683 51.4759 169.126 52.5506C168.608 53.5855 168.35 54.7597 168.35 56.0733V71.3579C168.35 72.3928 168.011 73.2685 167.335 73.985C166.658 74.6617 165.802 75 164.767 75C163.732 75 162.877 74.6617 162.2 73.985C161.523 73.2685 161.185 72.3928 161.185 71.3579V46.6995C161.185 45.6646 161.523 44.8088 162.2 44.1321C162.877 43.4156 163.732 43.0574 164.767 43.0574C165.802 43.0574 166.658 43.4156 167.335 44.1321C168.011 44.8088 168.35 45.6646 168.35 46.6995V49.2668L167.454 49.0877C167.812 48.411 168.31 47.6946 168.947 46.9383C169.584 46.1422 170.36 45.4058 171.275 44.7292C172.191 44.0525 173.206 43.5152 174.32 43.1171C175.435 42.6793 176.649 42.4604 177.962 42.4604ZM242.377 42.4604C243.412 42.4604 244.268 42.7987 244.945 43.4754C245.621 44.152 245.96 45.0277 245.96 46.1024V71.3579C245.96 72.3928 245.621 73.2685 244.945 73.985C244.268 74.6617 243.412 75 242.377 75C241.342 75 240.487 74.6617 239.81 73.985C239.133 73.2685 238.795 72.3928 238.795 71.3579V68.4324L240.109 68.9697C240.109 69.4872 239.83 70.124 239.273 70.8803C238.715 71.5968 237.959 72.3132 237.004 73.0297C236.049 73.7462 234.914 74.3631 233.601 74.8806C232.327 75.3582 230.934 75.5971 229.421 75.5971C226.675 75.5971 224.187 74.9005 221.958 73.5074C219.729 72.0744 217.958 70.124 216.644 67.6562C215.37 65.1485 214.734 62.2827 214.734 59.0586C214.734 55.7946 215.37 52.9288 216.644 50.4609C217.958 47.9533 219.709 46.0029 221.898 44.6098C224.087 43.1768 226.516 42.4604 229.182 42.4604C230.894 42.4604 232.466 42.7191 233.899 43.2365C235.332 43.754 236.566 44.4107 237.601 45.2068C238.676 46.0029 239.492 46.8189 240.049 47.6548C240.646 48.4508 240.944 49.1275 240.944 49.6848L238.795 50.4609V46.1024C238.795 45.0675 239.133 44.2117 239.81 43.5351C240.487 42.8186 241.342 42.4604 242.377 42.4604ZM230.317 69.0294C232.068 69.0294 233.601 68.5916 234.914 67.7159C236.228 66.8402 237.243 65.6461 237.959 64.1335C238.715 62.621 239.094 60.9293 239.094 59.0586C239.094 57.148 238.715 55.4364 237.959 53.9239C237.243 52.4113 236.228 51.2172 234.914 50.3415C233.601 49.4658 232.068 49.028 230.317 49.028C228.605 49.028 227.093 49.4658 225.779 50.3415C224.466 51.2172 223.431 52.4113 222.674 53.9239C221.958 55.4364 221.6 57.148 221.6 59.0586C221.6 60.9293 221.958 62.621 222.674 64.1335C223.431 65.6461 224.466 66.8402 225.779 67.7159C227.093 68.5916 228.605 69.0294 230.317 69.0294ZM270.495 42.4604C273.36 42.4604 275.53 43.0773 277.002 44.3112C278.515 45.5452 279.55 47.197 280.107 49.2668C280.664 51.2968 280.943 53.5656 280.943 56.0733V71.3579C280.943 72.3928 280.605 73.2685 279.928 73.985C279.251 74.6617 278.396 75 277.361 75C276.326 75 275.47 74.6617 274.793 73.985C274.117 73.2685 273.778 72.3928 273.778 71.3579V56.0733C273.778 54.7597 273.619 53.5855 273.301 52.5506C272.982 51.4759 272.405 50.6201 271.569 49.9833C270.733 49.3464 269.539 49.028 267.987 49.028C266.474 49.028 265.181 49.3464 264.106 49.9833C263.031 50.6201 262.215 51.4759 261.658 52.5506C261.141 53.5855 260.882 54.7597 260.882 56.0733V71.3579C260.882 72.3928 260.544 73.2685 259.867 73.985C259.19 74.6617 258.334 75 257.3 75C256.265 75 255.409 74.6617 254.732 73.985C254.056 73.2685 253.717 72.3928 253.717 71.3579V34.4598C253.717 33.4249 254.056 32.5691 254.732 31.8924C255.409 31.176 256.265 30.8177 257.3 30.8177C258.334 30.8177 259.19 31.176 259.867 31.8924C260.544 32.5691 260.882 33.4249 260.882 34.4598V49.2668L259.986 49.0877C260.345 48.411 260.842 47.6946 261.479 46.9383C262.116 46.1422 262.892 45.4058 263.808 44.7292C264.723 44.0525 265.738 43.5152 266.853 43.1171C267.967 42.6793 269.181 42.4604 270.495 42.4604ZM334.81 75C333.696 75 332.8 74.5423 332.124 73.6268L318.331 55.4762L323.765 49.9236L338.034 68.7906C338.592 69.5469 338.87 70.3629 338.87 71.2385C338.87 72.353 338.452 73.2685 337.616 73.985C336.781 74.6617 335.845 75 334.81 75ZM335.527 32.9074C336.482 32.9074 337.258 33.3055 337.855 34.1015C338.492 34.8578 338.811 35.634 338.811 36.4301C338.811 37.266 338.452 38.0421 337.736 38.7586L312.719 62.7006L312.421 54.1627L332.601 34.2807C333.517 33.3652 334.492 32.9074 335.527 32.9074ZM309.734 75C308.619 75 307.724 74.6617 307.047 73.985C306.37 73.2685 306.032 72.3928 306.032 71.3579V36.848C306.032 35.8131 306.39 34.9573 307.107 34.2807C307.823 33.5642 308.739 33.206 309.853 33.206C310.968 33.206 311.843 33.5642 312.48 34.2807C313.157 34.9573 313.495 35.8131 313.495 36.848V71.3579C313.495 72.3928 313.157 73.2685 312.48 73.985C311.804 74.6617 310.888 75 309.734 75ZM367.562 43.0574C368.597 43.0574 369.453 43.4156 370.13 44.1321C370.806 44.8088 371.145 45.6646 371.145 46.6995V61.8647C371.145 66.0839 369.97 69.4275 367.622 71.8953C365.273 74.3631 361.89 75.5971 357.472 75.5971C353.054 75.5971 349.67 74.3631 347.322 71.8953C345.013 69.4275 343.859 66.0839 343.859 61.8647V46.6995C343.859 45.6646 344.197 44.8088 344.874 44.1321C345.551 43.4156 346.406 43.0574 347.441 43.0574C348.476 43.0574 349.332 43.4156 350.009 44.1321C350.685 44.8088 351.024 45.6646 351.024 46.6995V61.8647C351.024 64.2928 351.561 66.1038 352.636 67.298C353.71 68.4523 355.322 69.0294 357.472 69.0294C359.661 69.0294 361.293 68.4523 362.368 67.298C363.442 66.1038 363.98 64.2928 363.98 61.8647V46.6995C363.98 45.6646 364.318 44.8088 364.995 44.1321C365.671 43.4156 366.527 43.0574 367.562 43.0574ZM395.977 42.4604C398.922 42.4604 401.151 43.0773 402.664 44.3112C404.216 45.5452 405.271 47.197 405.828 49.2668C406.425 51.2968 406.724 53.5656 406.724 56.0733V71.3579C406.724 72.3928 406.386 73.2685 405.709 73.985C405.032 74.6617 404.177 75 403.142 75C402.107 75 401.251 74.6617 400.574 73.985C399.898 73.2685 399.559 72.3928 399.559 71.3579V56.0733C399.559 54.7597 399.38 53.5855 399.022 52.5506C398.704 51.4759 398.106 50.6201 397.231 49.9833C396.355 49.3464 395.101 49.028 393.469 49.028C391.877 49.028 390.524 49.3464 389.409 49.9833C388.335 50.6201 387.499 51.4759 386.902 52.5506C386.344 53.5855 386.066 54.7597 386.066 56.0733V71.3579C386.066 72.3928 385.727 73.2685 385.051 73.985C384.374 74.6617 383.518 75 382.483 75C381.449 75 380.593 74.6617 379.916 73.985C379.239 73.2685 378.901 72.3928 378.901 71.3579V46.6995C378.901 45.6646 379.239 44.8088 379.916 44.1321C380.593 43.4156 381.449 43.0574 382.483 43.0574C383.518 43.0574 384.374 43.4156 385.051 44.1321C385.727 44.8088 386.066 45.6646 386.066 46.6995V49.2668L385.17 49.0877C385.528 48.411 386.046 47.6946 386.723 46.9383C387.399 46.1422 388.195 45.4058 389.111 44.7292C390.026 44.0525 391.061 43.5152 392.215 43.1171C393.37 42.6793 394.624 42.4604 395.977 42.4604ZM428.678 42.4604C430.947 42.4604 432.917 42.6992 434.589 43.1768C436.3 43.6545 437.614 44.3311 438.529 45.2068C439.485 46.0427 439.962 47.0577 439.962 48.2518C439.962 49.0479 439.724 49.8042 439.246 50.5206C438.768 51.1973 438.072 51.5356 437.156 51.5356C436.519 51.5356 435.982 51.456 435.544 51.2968C435.146 51.0978 434.788 50.859 434.469 50.5803C434.151 50.3017 433.773 50.043 433.335 49.8042C432.937 49.5653 432.32 49.3862 431.484 49.2668C430.688 49.1076 430.091 49.028 429.693 49.028C427.663 49.028 425.932 49.4658 424.499 50.3415C423.105 51.2172 422.031 52.4113 421.274 53.9239C420.518 55.3966 420.14 57.1082 420.14 59.0586C420.14 60.9691 420.518 62.6807 421.274 64.1933C422.071 65.666 423.145 66.8402 424.499 67.7159C425.892 68.5916 427.484 69.0294 429.275 69.0294C430.27 69.0294 431.126 68.9697 431.842 68.8503C432.559 68.7309 433.156 68.5518 433.634 68.313C434.191 67.9945 434.688 67.6562 435.126 67.298C435.564 66.9397 436.221 66.7606 437.097 66.7606C438.131 66.7606 438.927 67.0989 439.485 67.7756C440.042 68.4125 440.321 69.2085 440.321 70.1638C440.321 71.1589 439.763 72.0744 438.649 72.9103C437.534 73.7064 436.062 74.3631 434.231 74.8806C432.439 75.3582 430.489 75.5971 428.379 75.5971C425.235 75.5971 422.508 74.8806 420.2 73.4476C417.891 71.9749 416.1 69.9847 414.826 67.4771C413.592 64.9694 412.975 62.1633 412.975 59.0586C412.975 55.7946 413.632 52.9288 414.946 50.4609C416.299 47.9533 418.15 46.0029 420.498 44.6098C422.887 43.1768 425.613 42.4604 428.678 42.4604ZM452.234 71.3579C452.234 72.3928 451.895 73.2685 451.219 73.985C450.542 74.6617 449.686 75 448.651 75C447.617 75 446.761 74.6617 446.084 73.985C445.407 73.2685 445.069 72.3928 445.069 71.3579V46.6995C445.069 45.6646 445.407 44.8088 446.084 44.1321C446.761 43.4156 447.617 43.0574 448.651 43.0574C449.686 43.0574 450.542 43.4156 451.219 44.1321C451.895 44.8088 452.234 45.6646 452.234 46.6995V71.3579ZM448.592 39.1765C447.238 39.1765 446.283 38.9576 445.726 38.5198C445.169 38.0819 444.89 37.3058 444.89 36.1912V35.0568C444.89 33.9025 445.189 33.1264 445.786 32.7283C446.422 32.2905 447.378 32.0715 448.651 32.0715C450.045 32.0715 451.02 32.2905 451.577 32.7283C452.134 33.1662 452.413 33.9423 452.413 35.0568V36.1912C452.413 37.3456 452.114 38.1416 451.517 38.5795C450.92 38.9775 449.945 39.1765 448.592 39.1765Z" fill="black"/>
</svg>
