<svg width="1119" height="874" viewBox="0 0 1119 874" fill="none" xmlns="http://www.w3.org/2000/svg">
<g clip-path="url(#clip0_375_2)">
<path opacity="0.4" d="M782.229 721.411L566.286 597.101C565.043 596.391 564.015 595.358 563.31 594.112C562.606 592.866 562.251 591.453 562.283 590.022C562.315 588.591 562.733 587.195 563.493 585.982C564.253 584.769 565.326 583.783 566.599 583.129L593.766 569.113C594.954 568.507 596.274 568.207 597.607 568.238C598.94 568.269 600.245 568.632 601.403 569.292L824.603 697.789C825.845 698.503 826.872 699.538 827.576 700.786C828.28 702.033 828.634 703.447 828.602 704.879C828.57 706.311 828.153 707.708 827.394 708.923C826.635 710.138 825.562 711.126 824.289 711.783L804.581 721.926C801.111 723.721 797.245 724.615 793.339 724.525C789.433 724.435 785.613 723.364 782.229 721.411V721.411Z" fill="#D6D8E5"/>
<path d="M795.465 698.013L611.414 591.794C595.737 582.838 583.173 558.657 583.173 537.879V24.6292C583.173 3.85109 595.827 -5.70951 611.414 3.29134L795.465 109.712C811.143 118.668 823.707 142.849 823.707 163.627V676.81C823.707 697.476 811.053 707.014 795.465 698.013Z" fill="#B1B4C4"/>
<path d="M798.623 707.26L813.203 699.894L799.228 675.937L798.623 707.26Z" fill="#B1B4C4"/>
<path d="M580.373 8.50829L593.789 1.47778L591.079 21.2483L580.373 8.50829Z" fill="#B1B4C4"/>
<path d="M783.864 703.879L599.835 597.661C584.158 588.704 571.616 564.523 571.616 543.745V30.585C571.616 9.8069 584.248 0.246303 599.835 9.24715L783.864 115.466C799.542 124.422 812.083 148.604 812.083 169.382V682.564C811.971 703.342 799.34 712.88 783.864 703.879Z" fill="#616E84"/>
<path d="M810.001 170.703V683.84C810.001 704.641 797.369 714.179 781.781 705.201L709.621 663.533L687.225 650.591L597.753 598.982C582.075 590.026 569.533 565.844 569.533 545.044V31.906C569.533 11.1951 582.165 1.56735 597.753 10.5458L781.781 116.765C797.302 125.766 810.001 150.014 810.001 170.703Z" fill="#20232D"/>
<path d="M797.017 165.594V665.387C797.017 677.971 788.171 683.098 777.264 676.784L719.728 643.579L714.712 640.646L713.009 639.661L700.58 632.474L664.589 611.74L649.651 603.12L643.649 599.65L602.731 576.118C591.824 569.826 583 554.489 583 541.906V42.1124C583 29.5067 591.824 24.4018 602.731 30.6934L674.578 72.1823V72.3839C674.887 77.7266 676.451 82.9213 679.144 87.5467C681.837 92.172 685.582 96.0978 690.076 99.0058C698.586 103.864 705.484 99.9238 705.484 90.0497C705.484 90.0497 705.484 89.893 705.484 89.8258L777.331 131.315C788.171 137.674 797.017 152.988 797.017 165.594Z" fill="white"/>
<path d="M696.646 94.1046C698.938 92.7877 698.951 88.5107 696.675 84.5517C694.399 80.5926 690.696 78.4508 688.404 79.7678C686.112 81.0847 686.099 85.3618 688.374 89.3208C690.65 93.2798 694.353 95.4216 696.646 94.1046Z" fill="#2B303F"/>
<path opacity="0.1" d="M689.801 89.4039C689.076 88.9312 688.474 88.2927 688.046 87.5411C687.618 86.7896 687.374 85.9468 687.337 85.0826C687.337 83.5153 688.434 82.8436 689.778 83.672C690.491 84.1344 691.083 84.7589 691.508 85.4945C691.932 86.2301 692.176 87.0557 692.219 87.9037C692.219 89.5606 691.122 90.1875 689.801 89.4039Z" fill="white"/>
<path d="M817.459 238.209C815.958 239.082 814.726 238.209 814.726 236.149V214.274C814.747 213.255 815.005 212.256 815.479 211.354C815.953 210.453 816.631 209.674 817.459 209.079C818.959 208.229 820.169 209.079 820.169 211.139V233.014C820.156 234.032 819.904 235.032 819.433 235.935C818.962 236.837 818.286 237.616 817.459 238.209V238.209Z" fill="#757B89"/>
<path d="M817.459 274.055C815.958 274.929 814.726 274.055 814.726 272.018V250.12C814.747 249.102 815.005 248.102 815.479 247.201C815.953 246.299 816.631 245.52 817.459 244.926C818.959 244.075 820.169 244.926 820.169 246.986V268.861C820.157 269.879 819.906 270.88 819.435 271.782C818.964 272.685 818.287 273.464 817.459 274.055V274.055Z" fill="#757B89"/>
<path opacity="0.4" d="M386.244 579.771L193.749 691.61L0 579.771L192.495 467.932L386.244 579.771Z" fill="#D6D8E5"/>
<path d="M401.092 553.619L401.047 572.852L208.553 684.691L208.598 665.436L401.092 553.619Z" fill="#D3D3DD"/>
<path d="M208.598 665.436L208.553 684.691L14.8038 572.852L14.8486 553.619L208.598 665.436Z" fill="#E0DEE9"/>
<path d="M401.092 553.619L208.598 665.436L14.8486 553.619L207.343 441.78L401.092 553.619Z" fill="#EAEAF4"/>
<path d="M371.081 261.965L370.253 550.641L208.239 644.769L209.068 356.093L371.081 261.965Z" fill="#D3D3DD"/>
<path d="M209.068 356.093L208.239 644.769L45.173 550.641L45.9792 261.965L209.068 356.093Z" fill="#E0DEE9"/>
<path d="M371.081 261.965L209.068 356.093L45.9792 261.965L207.993 167.837L371.081 261.965Z" fill="#EAEAF4"/>
<path d="M88.0168 388.178L87.9272 418.114L61.9029 403.09L61.9701 373.154L88.0168 388.178Z" fill="#2A313F"/>
<path d="M88.1288 346.555L88.0616 376.468L62.0149 361.444L62.1045 331.531L88.1288 346.555Z" fill="#2A313F"/>
<path d="M88.2631 304.909L88.1735 334.845L62.1268 319.821L62.2164 289.885L88.2631 304.909Z" fill="#2A313F"/>
<path d="M193.234 490.636L193.167 520.571L99.7299 466.633L99.7971 436.698L193.234 490.636Z" fill="#2A313F"/>
<path d="M193.368 448.99L193.279 478.926L99.8419 424.988L99.9315 395.052L193.368 448.99Z" fill="#2A313F"/>
<path d="M193.48 407.367L193.391 437.28L99.9539 383.342L100.043 353.429L193.48 407.367Z" fill="#2A313F"/>
<path d="M193.592 365.721L193.503 395.657L100.088 341.719L100.155 311.783L193.592 365.721Z" fill="#2A313F"/>
<path d="M87.7928 471.447L87.7033 501.383L61.6566 486.359L61.7461 456.423L87.7928 471.447Z" fill="#2A313F"/>
<path d="M87.9048 429.824L87.8152 459.759L61.7685 444.736L61.8581 414.8L87.9048 429.824Z" fill="#2A313F"/>
<path d="M193.122 532.259L193.032 562.195L99.5956 508.257L99.6852 478.321L193.122 532.259Z" fill="#2A313F"/>
<path d="M250.187 392.656L250.277 422.592L224.23 437.616L224.14 407.68L250.187 392.656Z" fill="#2A313F"/>
<path d="M250.075 351.01L250.165 380.946L224.096 395.97L224.028 366.057L250.075 351.01Z" fill="#2A313F"/>
<path d="M355.874 456.759L355.964 486.673L262.527 540.61L262.438 510.697L355.874 456.759Z" fill="#2A313F"/>
<path d="M355.762 415.136L355.83 445.049L262.415 498.987L262.326 469.052L355.762 415.136Z" fill="#2A313F"/>
<path d="M355.628 373.49L355.718 403.403L262.281 457.341L262.191 427.428L355.628 373.49Z" fill="#2A313F"/>
<path d="M355.516 331.867L355.606 361.78L262.169 415.718L262.079 385.782L355.516 331.867Z" fill="#2A313F"/>
<path d="M355.404 290.221L355.494 320.134L262.057 374.072L261.968 344.137L355.404 290.221Z" fill="#2A313F"/>
<path d="M250.545 517.571L250.635 547.484L224.566 562.508L224.499 532.595L250.545 517.571Z" fill="#2A313F"/>
<path d="M250.433 475.925L250.523 505.861L224.454 520.885L224.364 490.949L250.433 475.925Z" fill="#2A313F"/>
<path d="M250.299 434.302L250.389 464.215L224.342 479.239L224.252 449.326L250.299 434.302Z" fill="#2A313F"/>
<path d="M370.32 527.355L370.253 550.641L208.262 644.769L208.306 620.924L370.32 527.355Z" fill="#002B53"/>
<path d="M208.306 620.924L208.239 644.769L45.173 550.641L45.2402 526.796L208.306 620.924Z" fill="#002B53"/>
<path d="M207.231 265.793C207.858 265.793 208.463 265.793 209.068 265.793L218.34 271.122C211.717 273.126 204.649 273.126 198.026 271.122L207.231 265.793Z" fill="#2A313F"/>
<path d="M166.963 231.85C190.591 220.431 225.193 220.431 248.955 231.85L240.602 236.709C221.52 227.909 194.331 227.909 175.384 236.709L166.963 231.85Z" fill="#2A313F"/>
<path d="M181.409 240.112C198.54 233.15 217.714 233.15 234.846 240.112L226.425 244.993C214.632 240.628 201.667 240.628 189.874 244.993L181.409 240.112Z" fill="#2A313F"/>
<path d="M197.892 249.695C204.521 247.68 211.599 247.68 218.228 249.695L209.023 255.046C208.397 255.001 207.768 255.001 207.142 255.046L197.892 249.695Z" fill="#2A313F"/>
<path d="M217.377 260.957C217.433 260.601 217.433 260.239 217.377 259.882L226.582 254.531C227.4 255.276 228.054 256.184 228.501 257.196C228.948 258.208 229.18 259.302 229.18 260.409C229.18 261.515 228.948 262.609 228.501 263.622C228.054 264.634 227.4 265.541 226.582 266.286L217.377 260.957Z" fill="#2A313F"/>
<path d="M234.801 270.921C242.304 264.584 242.259 256.121 234.801 249.762L243.222 244.881C255.293 253.972 255.361 266.734 243.379 275.824L234.801 270.921Z" fill="#2A313F"/>
<path d="M181.409 249.829C173.906 256.188 173.973 264.652 181.543 270.988L173.122 275.891C161.051 266.801 160.983 254.039 172.943 244.948L181.409 249.829Z" fill="#2A313F"/>
<path d="M249.179 279.295C264.297 268.301 264.185 252.539 248.978 241.545L257.331 236.686C277.107 250.389 277.242 270.451 257.6 284.153L249.179 279.295Z" fill="#2A313F"/>
<path d="M175.653 284.131C194.712 292.908 221.901 292.908 240.87 284.131L249.269 288.99C225.663 300.409 191.039 300.409 167.299 288.99L175.653 284.131Z" fill="#2A313F"/>
<path d="M167.053 241.545C151.958 252.539 152.047 268.279 167.277 279.295L159.012 284.154C139.214 270.451 139.102 250.389 158.721 236.687L167.053 241.545Z" fill="#2A313F"/>
<path d="M189.942 275.824C201.726 280.19 214.685 280.19 226.47 275.824L234.958 280.728C217.826 287.69 198.652 287.69 181.521 280.728L189.942 275.824Z" fill="#2A313F"/>
<path d="M198.833 259.882C198.777 260.239 198.777 260.601 198.833 260.957L189.628 266.308C188.809 265.562 188.155 264.652 187.707 263.638C187.26 262.624 187.029 261.528 187.029 260.42C187.029 259.312 187.26 258.215 187.707 257.202C188.155 256.188 188.809 255.278 189.628 254.531L198.833 259.882Z" fill="#2A313F"/>
<path d="M748.031 456.491C750.632 458.172 752.799 460.443 754.356 463.12C755.913 465.797 756.815 468.804 756.989 471.895V487.143C756.989 492.808 752.958 495.091 748.031 492.225L626.106 421.875C623.505 420.195 621.338 417.923 619.781 415.246C618.224 412.569 617.322 409.563 617.148 406.471V391.223C617.148 385.559 621.201 383.275 626.106 386.118L748.031 456.491Z" fill="#D5D7E2"/>
<path opacity="0.4" d="M492 823C552.751 823 602 794.57 602 759.5C602 724.43 552.751 696 492 696C431.249 696 382 724.43 382 759.5C382 794.57 431.249 823 492 823Z" fill="#7C7E8B"/>
<path d="M421.047 372.169C420.039 380.946 409.558 418.831 411.798 431.794C414.037 444.758 449.871 466.499 449.871 466.499L454.843 444.266L435 424.853L440.375 388.066L421.047 372.169Z" fill="#FFCEA9"/>
<path d="M448.706 334.823C445.222 333.213 441.269 332.938 437.595 334.048C433.922 335.158 430.783 337.576 428.774 340.846C423.511 349.578 418.046 379.491 417.576 384.596C417.576 384.596 424.967 394.806 436.053 393.104L448.706 334.823Z" fill="#EDEDED"/>
<path d="M489.602 757.213C497.423 759.398 505.791 758.391 512.871 754.414C518.47 754.593 548.705 741.629 552.871 752.511C556.476 762.049 543.352 770.871 536.342 772.662C521.046 776.357 509.736 783.992 503.577 785.29C499.098 786.253 493.073 786.88 489.422 783.298C484.943 778.887 485.324 762.9 489.602 757.213Z" fill="#511713"/>
<path d="M503.465 782.559C509.624 781.26 520.934 773.603 536.23 769.931C542.121 768.498 552.244 762.072 553.251 754.414C554.618 763.191 542.77 770.983 536.23 772.573C520.934 776.267 509.624 783.902 503.465 785.201C498.986 786.163 492.961 786.79 489.311 783.208C488.369 782.156 487.687 780.898 487.317 779.536C489.586 781.265 492.228 782.439 495.032 782.964C497.836 783.488 500.724 783.35 503.465 782.559V782.559Z" fill="#2D0704"/>
<path d="M440.465 735.159C448.244 737.306 456.557 736.301 463.6 732.36C469.199 732.539 499.434 719.553 503.599 730.457C507.205 739.995 494.103 748.817 487.093 750.608C471.774 754.302 460.464 761.937 454.305 763.236C449.826 764.199 443.802 764.826 440.151 761.221C435.806 756.788 436.187 740.846 440.465 735.159Z" fill="#511713"/>
<path d="M454.328 760.504C460.487 759.206 471.797 751.548 487.116 747.876C492.984 746.443 503.107 740.017 504.114 732.36C505.481 741.137 493.655 748.929 487.116 750.518C471.797 754.213 460.487 761.848 454.328 763.146C449.849 764.109 443.824 764.736 440.173 761.131C439.228 760.091 438.544 758.84 438.18 757.482C440.449 759.21 443.091 760.384 445.895 760.909C448.699 761.434 451.587 761.295 454.328 760.504Z" fill="#2D0704"/>
<path d="M439.86 652.875C441.164 641.623 443.503 630.515 446.847 619.693C446.847 619.693 444.765 591.078 443.734 563.941C442.547 533.132 431.842 506.018 440.285 481.456L535.267 502.592C535.267 502.592 529.512 625.38 528.257 640.247C527.552 651.818 526.123 663.334 523.98 674.728C519.635 698.551 512.602 755.332 512.602 755.332C502.547 761.154 489.355 757.929 489.355 757.929C489.355 757.929 490.072 686.281 490.721 669.04C491.505 648.083 492.155 649.673 492.155 649.673L489.019 597.437L486.959 571.442C486.959 571.442 484.316 590.518 482.614 607.557C481.114 622.402 477.53 635.858 473.521 663.533C470.05 687.535 464.406 735.718 464.406 735.718C454.35 741.562 440.711 736.726 440.711 736.726C440.711 736.726 437.15 673.675 439.86 652.875Z" fill="#002B53"/>
<path d="M453.746 335.36C460.979 335.696 466.377 337.599 467.183 335.36C467.97 331.629 468.523 327.853 468.841 324.053C468.012 321.948 467.295 319.687 467.295 319.687C458.202 314.112 455.336 304.282 454.126 292.819C452.088 273.272 462.659 256.166 482.211 254.106C500.598 252.203 514.125 265.122 517.731 282.855C519.68 291.609 523.554 308.156 518.314 322.553C515.402 330.613 511.595 336.994 507.855 338.226C504.211 338.119 500.576 337.798 496.97 337.263C496.97 337.263 495.985 342.681 495.313 346.219C494.641 349.757 494.91 351.548 501.852 355.824C508.795 360.101 491.349 368.878 479.971 368.027C468.594 367.176 455.873 360.482 452.402 353.003C448.438 344.808 448.774 335.114 453.746 335.36Z" fill="#FFCEA9"/>
<path d="M464.227 336.412C462.211 341.428 467.318 347.607 480.912 351.817C494.507 356.026 495.716 350.585 495.716 350.585C495.716 350.585 515.648 359.541 522.143 364.198C530.318 369.908 533.924 386.409 535.021 414.263C536.298 446.505 536.41 494.33 535.335 502.592C535.335 502.592 520.083 517.773 500.576 516.183C481.069 514.593 448.214 497.308 440.263 483.986C440.465 455.707 443.779 451.117 439.21 434.727C428.729 397.448 423.197 382.178 428.304 357.414C432.492 336.994 438.382 334.464 446.444 334.643C452.399 334.918 458.335 335.508 464.227 336.412V336.412Z" fill="#F4F4F4"/>
<path d="M612.556 417.084C596.454 413.345 575.513 411.486 568.369 406.65C551.079 394.94 536.858 383.14 526.376 377.095C514.013 369.953 509.086 371.475 502.412 373.871C494.574 376.714 493.969 386.006 507.362 397.179C523.218 410.367 535.76 418.383 557.507 431.324C563.195 434.705 626.442 440.616 643.194 441.265C647.674 441.444 651.078 441.758 659.723 442.094C668.368 442.43 678.379 440.75 684.739 437.347C691.1 433.944 692.869 431.705 692.735 430.115C692.578 428.122 690.741 427.607 687.651 428.839C682.906 431.139 677.785 432.565 672.533 433.048C672.533 433.048 679.431 430.809 683.418 428.951C686.981 427.389 690.318 425.356 693.339 422.905C696.206 420.487 695.691 414.957 692.555 416.188C689.42 417.42 687.292 419.099 681.357 421.629C678.206 422.978 674.906 423.947 671.525 424.517C675.434 422.585 679.179 420.338 682.724 417.8C685.655 415.929 687.987 413.256 689.442 410.098C690.181 408.441 688.882 405.351 685.187 407.322C681.85 409.068 678.468 412.695 671.525 415.069C666.531 416.77 662.769 417.308 663.172 416.3C663.575 415.293 666.576 414.531 669.756 411.218C672.936 407.904 673.899 403.112 671.996 401.545C670.092 399.978 670.406 400.314 666.777 403.09C663.149 405.866 659.051 407.21 654.258 411.531C651.206 414.75 647.417 417.178 643.217 418.606C637.707 420.487 627.853 420.622 612.556 417.084Z" fill="#FFCEA9"/>
<path d="M495.783 367.019C503.375 359.295 512.311 358.601 525.839 368.676C539.366 378.752 550.026 387.372 550.026 387.372C550.335 394.802 547.786 402.069 542.905 407.68C534.551 417.845 527.227 415.74 527.227 415.74C527.227 415.74 514.148 404.344 505.413 396.44C496.679 388.536 486.399 376.535 495.783 367.019Z" fill="#EDEDED"/>
<path d="M517.194 280.347C517.194 280.347 534.103 254.666 497.485 249.426C471.08 245.665 454.104 262.614 452.155 281.041C450.274 298.618 461.114 316.866 468.93 324.12C472.738 325.486 480.957 326.359 491.752 321.366C492.179 316.58 492.344 311.774 492.244 306.969C492.244 306.969 479.389 279.877 517.194 280.347Z" fill="black"/>
<g opacity="0.4">
<path opacity="0.4" d="M1079.49 806.874C1105.99 822.167 1128.47 820.577 1103.93 838.646C1040.9 885.016 1010.6 877.582 984.108 862.29L868.813 795.724C842.296 780.431 858.152 746.466 884.49 731.218C910.828 715.97 937.681 725.016 964.198 740.331L1079.49 806.874Z" fill="#D6D8E5"/>
</g>
<path d="M1118.82 635.881C1118.82 636.575 1118.71 637.291 1118.57 638.008C1118.46 638.589 1118.32 639.165 1118.15 639.732C1117.97 640.403 1117.81 641.075 1117.57 641.747C1117.32 642.418 1117.12 642.844 1116.87 643.404C1116.63 643.963 1116.27 644.814 1115.89 645.508C1115.51 646.202 1115.28 646.516 1114.99 647.008C1114.7 647.501 1113.98 648.598 1113.4 649.359C1112.82 650.121 1112.26 650.86 1111.61 651.598C1111.45 651.755 1111.32 651.934 1111.16 652.113C1110.29 653.076 1109.32 653.994 1108.32 654.912C1107.67 655.494 1106.95 656.054 1106.23 656.636C1105.52 657.218 1105.02 657.644 1104.35 658.114C1103.68 658.584 1102.74 659.211 1101.91 659.749C1101.08 660.286 1100.25 660.868 1099.34 661.383C1097.27 662.576 1095.14 663.66 1092.95 664.63L1091.03 665.436C1089.31 666.182 1087.54 666.854 1085.72 667.451C1085.07 667.675 1084.42 667.921 1083.77 668.122C1082.63 668.481 1081.53 668.794 1080.28 669.13C1079.02 669.466 1078.53 669.623 1077.61 669.846C1076.69 670.07 1075.13 670.384 1073.87 670.63C1073.02 670.809 1072.19 671.011 1071.32 671.145C1068.79 671.593 1066.21 671.951 1063.64 672.22L1061.22 672.421C1059.69 672.556 1058.17 672.668 1056.74 672.735C1055.78 672.735 1054.79 672.735 1053.8 672.735C1052.82 672.735 1051.34 672.735 1050.11 672.735C1048.88 672.735 1048.03 672.735 1047 672.735C1045.97 672.735 1044.76 672.735 1043.57 672.556L1040.43 672.309L1037.07 671.929L1034.05 671.503L1030.45 670.876L1027.65 670.317C1026.24 670.003 1024.85 669.645 1023.46 669.287L1021.22 668.66C1018.73 667.921 1016.31 667.115 1013.96 666.197C1012.8 665.749 1011.72 665.256 1010.56 664.764C1009.98 664.495 1009.37 664.271 1008.81 664.003C1007.11 663.174 1005.43 662.323 1003.84 661.405L888.499 594.839C875.173 587.137 868.522 577.039 868.544 566.941L868.051 747.384C868.051 757.482 874.77 767.535 888.006 775.259L1003.14 841.87C1004.76 842.788 1006.41 843.639 1008.12 844.445C1008.68 844.714 1009.3 844.96 1009.89 845.206C1010.89 845.654 1011.88 846.124 1012.91 846.527L1013.27 846.662C1015.62 847.58 1018.04 848.386 1020.52 849.102L1021.11 849.304L1022.85 849.729C1024.24 850.087 1025.63 850.446 1027.04 850.759C1027.42 850.759 1027.78 850.96 1028.16 851.028L1029.86 851.319C1031.05 851.543 1032.24 851.767 1033.45 851.946L1034.88 852.192C1035.4 852.192 1035.93 852.304 1036.47 852.371C1037.59 852.528 1038.71 852.64 1039.85 852.752L1041.44 852.931H1042.97L1046.39 853.11H1048.12H1055.04H1056.13C1057.68 853.11 1059.18 852.931 1060.61 852.819L1062.47 852.684H1063.03C1065.63 852.416 1068.18 852.058 1070.74 851.61H1071.09C1071.83 851.475 1072.53 851.274 1073.33 851.14C1074.59 850.901 1075.84 850.632 1077.1 850.334L1079.74 849.617C1080.9 849.304 1082.09 848.99 1083.23 848.632L1083.97 848.408C1084.4 848.274 1084.76 848.095 1085.18 847.96C1086.99 847.333 1088.76 846.662 1090.49 845.945L1092.44 845.117C1094.68 844.132 1096.78 843.057 1098.82 841.892L1099.63 841.4C1100.25 841.019 1100.79 840.616 1101.37 840.236C1101.96 839.855 1103.05 839.183 1103.82 838.623C1104.58 838.064 1105.09 837.616 1105.7 837.123C1106.3 836.631 1107.13 836.004 1107.78 835.399L1108.21 835.063C1109.06 834.257 1109.86 833.451 1110.62 832.623L1111.07 832.086C1111.52 831.571 1111.99 831.078 1112.39 830.563C1112.8 830.048 1112.68 830.093 1112.86 829.869C1113.45 829.085 1113.96 828.302 1114.45 827.496C1114.66 827.182 1114.92 826.846 1115.1 826.51C1115.2 826.345 1115.28 826.173 1115.35 825.995C1115.72 825.314 1116.05 824.611 1116.33 823.891C1116.51 823.488 1116.76 823.085 1116.92 822.682C1117.07 822.279 1116.92 822.391 1116.92 822.256C1117.16 821.585 1117.32 820.89 1117.5 820.219C1117.66 819.771 1117.79 819.315 1117.9 818.853C1117.9 818.741 1117.9 818.629 1117.9 818.495C1117.9 817.778 1118.08 817.084 1118.13 816.368C1118.17 815.651 1118.28 815.45 1118.31 814.979V814.375L1118.82 633.955C1118.85 634.597 1118.85 635.239 1118.82 635.881V635.881Z" fill="#D5D7E2"/>
<path d="M1099.05 606.079C1125.52 621.372 1125.67 646.18 1099.34 661.473C1073 676.765 1030.15 676.787 1003.66 661.473L888.32 594.907C861.848 579.614 861.691 554.806 888.051 539.491C914.411 524.176 957.21 524.198 983.705 539.491L1099.05 606.079Z" fill="#E9EAF4"/>
<path d="M926.864 748.324L942.541 705.783C937.885 699.668 935.205 692.279 934.859 684.602C934.859 675.87 939.741 671.168 946.505 672.309C948.64 672.657 950.686 673.418 952.53 674.548C962.25 680.168 970.133 693.737 970.088 704.932C970.088 711.895 966.975 716.239 962.294 717.179L974.03 763.214L977.703 777.722L926.864 748.324Z" fill="#3A4151"/>
<path d="M937.524 742.099L953.201 699.558C948.527 693.453 945.845 686.058 945.52 678.377C945.498 676.313 945.831 674.261 946.505 672.309C948.64 672.657 950.686 673.418 952.53 674.548C962.25 680.168 970.133 693.737 970.088 704.932C970.088 711.895 966.975 716.239 962.294 717.179L974.03 763.213L937.524 742.099Z" fill="#323944"/>
<path d="M956.718 475.858C955.646 476.515 954.635 477.264 953.694 478.097L953.201 478.545C952.355 479.394 951.604 480.332 950.962 481.344L950.357 482.329L950.223 482.575C950.101 482.752 949.996 482.939 949.909 483.135C949.554 483.799 949.247 484.487 948.991 485.195C948.991 485.195 948.991 485.195 948.991 485.329C948.384 487.005 947.986 488.75 947.804 490.524V490.725C947.675 491.705 947.615 492.692 947.625 493.681L947.468 554.134V575.92C942.295 578.517 936.571 579.823 930.783 579.726V550.283V503.443C930.793 501.859 930.936 500.279 931.208 498.718C931.208 498.405 931.32 498.069 931.41 497.733C931.495 497.294 931.608 496.86 931.746 496.435C931.746 496.435 931.746 496.3 931.746 496.233C931.868 495.838 932.01 495.449 932.172 495.069C932.149 495.003 932.149 494.933 932.172 494.867C932.306 494.554 932.418 494.263 932.552 493.972C932.62 493.715 932.718 493.467 932.843 493.233C932.923 493.129 932.991 493.016 933.045 492.897C933.325 492.296 933.654 491.719 934.03 491.173C934.03 491.173 934.03 491.173 934.142 491.173C934.475 490.677 934.834 490.198 935.217 489.74C935.62 489.292 936.024 488.844 936.449 488.419C936.578 488.235 936.747 488.082 936.942 487.971C937.395 487.547 937.874 487.151 938.375 486.784C938.803 486.435 939.269 486.134 939.764 485.889C939.905 485.766 940.054 485.654 940.212 485.553L956.718 475.858Z" fill="#323944"/>
<path d="M1079.22 567.658V569.718L1079.07 629.567V651.576C1073.94 654.088 1068.29 655.354 1062.58 655.271H1062.38V625.828L1062.49 579.435C1062.5 576.981 1062.37 574.529 1062.09 572.091C1061.96 570.904 1061.8 569.673 1061.6 568.442C1061.6 568.285 1061.6 568.083 1061.6 567.904C1061.44 566.964 1061.29 565.979 1061.06 565.038C1061.08 564.905 1061.08 564.769 1061.06 564.635C1060.57 562.262 1059.99 559.844 1059.29 557.426C1059.29 557.09 1059.09 556.799 1059 556.485C1058.69 555.41 1058.35 554.381 1057.99 553.328C1057.63 552.276 1057.16 550.865 1056.72 549.634C1056.27 548.402 1055.84 547.395 1055.4 546.275C1054.84 544.798 1054.16 543.32 1053.51 541.797C1053.43 541.642 1053.36 541.476 1053.31 541.305C1053.31 541.305 1053.31 541.193 1053.18 541.103C1051.99 538.483 1050.69 535.819 1049.26 533.199C1048.72 532.125 1048.14 531.095 1047.53 530.042C1046.75 528.632 1045.97 527.244 1045.12 525.855C1044.26 524.467 1043.21 522.945 1042.27 521.512C1041.82 520.773 1041.38 520.034 1040.88 519.273L1040.39 518.534C1040.31 518.404 1040.21 518.284 1040.1 518.176C1036.69 513.174 1033.03 508.354 1029.12 503.734C1028.88 503.42 1028.59 503.129 1028.34 502.838C1026.53 500.599 1024.69 498.607 1022.76 496.614C1022.5 496.294 1022.22 495.994 1021.91 495.718C1020.93 494.688 1019.94 493.658 1018.91 492.628C1017.88 491.599 1016.54 490.255 1015.31 489.113C1013.45 487.389 1011.61 485.665 1009.68 483.986C1006.37 481.12 1002.97 478.403 999.472 475.836L997.434 474.358C993.666 471.648 989.764 469.13 985.743 466.813C984.377 466.029 983.078 465.335 981.757 464.574C980.435 463.812 978.8 463.051 977.277 462.335C976.269 461.842 975.239 461.394 974.254 460.946L972.977 460.364L971.454 459.76C968.722 458.618 966.012 457.521 963.347 456.804C963.244 456.781 963.139 456.766 963.033 456.759L962.048 456.513C961.6 456.334 961.152 456.267 960.749 456.132C960.346 455.998 959.629 455.797 959.114 455.685H958.98L957.882 455.438C956.897 455.192 955.979 454.991 955.038 454.834C954.523 454.7 953.941 454.632 953.403 454.543C953.307 454.521 953.208 454.521 953.112 454.543L951.119 454.207H950.648C949.416 454.029 948.175 453.917 946.931 453.871C946.142 453.782 945.35 453.737 944.557 453.737H943.37C942.158 453.728 940.946 453.788 939.741 453.916H939.517H938.599C938.216 453.936 937.834 453.981 937.457 454.05C937.11 454.077 936.766 454.13 936.427 454.207H936.315C936.024 454.207 935.732 454.341 935.441 454.364C934.747 454.498 934.053 454.61 933.359 454.811C933.247 454.794 933.134 454.794 933.023 454.811C932.828 454.813 932.637 454.859 932.463 454.946C931.958 455.054 931.464 455.204 930.985 455.394C930.597 455.471 930.215 455.576 929.842 455.707C929.842 455.707 929.708 455.707 929.663 455.707C929.618 455.707 929.663 455.707 929.663 455.707C928.837 455.985 928.029 456.314 927.244 456.692L926.953 456.804C926.432 457.038 925.924 457.3 925.43 457.588C925.087 457.72 924.757 457.885 924.445 458.08L941.175 448.363C942.853 447.4 944.614 446.591 946.438 445.945C946.503 445.924 946.574 445.924 946.639 445.945V445.945C948.102 445.432 949.599 445.02 951.119 444.713L951.611 444.579H952.171C953.201 444.378 954.276 444.266 955.329 444.131H956.023H956.247C957.502 444.131 958.778 443.975 960.122 443.975H960.794C961.824 443.975 962.854 443.975 963.929 443.975H964.086C964.624 443.975 965.183 444.109 965.721 444.131L967.826 444.355H968.028C968.722 444.355 969.416 444.602 970.155 444.691C970.894 444.781 971.186 444.848 971.701 444.982H971.88C973.112 445.228 974.366 445.52 975.687 445.833C976.919 446.124 978.173 446.482 979.405 446.863C979.471 446.844 979.541 446.844 979.607 446.863C980.042 446.974 980.468 447.117 980.883 447.288C981.712 447.535 982.496 447.781 983.257 448.072C983.413 448.103 983.564 448.156 983.705 448.229C984.241 448.386 984.764 448.58 985.273 448.811C985.877 449.057 986.505 449.259 987.154 449.505C987.392 449.628 987.639 449.733 987.893 449.818L989.573 450.557C990.066 450.759 990.558 450.938 991.051 451.184C991.437 451.336 991.811 451.515 992.171 451.722C992.769 451.954 993.353 452.223 993.918 452.528C994.298 452.684 994.657 452.864 995.037 453.065C995.418 453.267 996.068 453.558 996.538 453.804C997.008 454.05 997.703 454.408 998.263 454.744C998.551 454.851 998.829 454.986 999.091 455.147L1002.29 456.916C1002.61 457.118 1002.94 457.274 1003.23 457.498C1004.67 458.304 1006.06 459.178 1007.44 460.073C1008.16 460.476 1008.86 460.969 1009.55 461.417C1009.89 461.673 1010.24 461.912 1010.6 462.133L1011.68 462.85C1013.11 463.835 1014.5 464.82 1015.91 465.85L1017.21 466.88C1017.61 467.171 1018.04 467.44 1018.44 467.775C1018.84 468.111 1019.58 468.649 1020.17 469.141C1021.64 470.238 1023.03 471.38 1024.47 472.612L1024.91 473.015C1025.19 473.236 1025.45 473.475 1025.7 473.731C1026.68 474.537 1027.67 475.366 1028.65 476.261C1029.64 477.157 1030.78 478.187 1031.81 479.217C1032.02 479.372 1032.21 479.553 1032.37 479.754C1032.49 479.812 1032.59 479.896 1032.66 480C1033.98 481.239 1035.25 482.493 1036.49 483.762L1038.44 485.822C1038.73 486.091 1039.02 486.426 1039.31 486.717C1039.61 487.009 1039.81 487.21 1040.05 487.501C1041.15 488.688 1042.29 489.964 1043.37 491.173C1043.91 491.755 1044.4 492.382 1044.89 492.942L1045.63 493.838C1045.92 494.173 1046.24 494.509 1046.48 494.823C1047.6 496.144 1048.61 497.42 1049.64 498.719C1050.02 499.211 1050.38 499.704 1050.78 500.196C1051.18 500.689 1051.41 500.98 1051.7 501.383L1052.89 502.95C1053.87 504.294 1054.81 505.704 1055.8 507.048L1056.9 508.637L1057.19 509.063C1057.77 509.869 1058.26 510.787 1058.82 511.593C1059.9 513.317 1061.06 514.996 1062.02 516.675L1062.41 517.302C1063.59 519.228 1064.64 521.198 1065.72 523.146C1065.72 523.325 1065.88 523.482 1065.97 523.639C1066.08 523.841 1066.19 524.05 1066.28 524.266C1066.77 525.206 1067.27 526.102 1067.74 527.042C1068.21 527.983 1068.68 528.945 1069.12 529.886C1069.37 530.401 1069.57 530.938 1069.82 531.431C1069.9 531.588 1069.97 531.753 1070.02 531.923C1070.15 532.169 1070.27 532.461 1070.4 532.707C1070.8 533.602 1071.16 534.476 1071.54 535.371C1071.92 536.267 1072.24 537.095 1072.6 537.946C1072.77 538.394 1072.93 538.864 1073.09 539.312C1073.13 539.468 1073.19 539.619 1073.27 539.76C1073.36 540.034 1073.46 540.303 1073.58 540.566C1073.87 541.484 1074.21 542.335 1074.5 543.208C1074.79 544.081 1075.06 544.954 1075.31 545.827C1075.44 546.23 1075.55 546.634 1075.69 547.059C1075.82 547.484 1075.69 547.35 1075.8 547.507C1075.91 547.815 1076.01 548.129 1076.09 548.447C1076.34 549.343 1076.58 550.216 1076.78 551.067C1076.98 551.918 1077.19 552.746 1077.37 553.574C1077.37 553.933 1077.52 554.358 1077.61 554.716C1077.6 554.843 1077.6 554.97 1077.61 555.097C1077.61 555.41 1077.75 555.746 1077.79 556.037C1077.95 556.843 1078.08 557.672 1078.24 558.456C1078.4 559.239 1078.44 560 1078.58 560.695C1078.71 561.389 1078.58 561.635 1078.69 562.128C1078.71 562.223 1078.71 562.323 1078.69 562.419C1078.7 562.612 1078.7 562.807 1078.69 563.001C1078.69 563.74 1078.82 564.501 1078.87 565.24C1078.91 565.979 1079.18 566.964 1079.22 567.658Z" fill="#323944"/>
<path d="M1062.54 579.435L1062.43 625.827V655.27C1052.42 655.27 1043.86 651.688 1040.03 646.65V634.403L1040.23 566.516C1040.23 543.566 1015.31 509.712 985.653 492.628C972.328 484.926 959.92 481.702 950.267 482.597C946.815 482.84 943.451 483.801 940.391 485.419C940.234 485.52 940.084 485.632 939.943 485.754C939.449 486.002 938.984 486.303 938.554 486.65C938.041 487.001 937.561 487.398 937.121 487.837C936.926 487.948 936.757 488.101 936.628 488.285C936.167 488.675 935.754 489.118 935.396 489.606C934.986 490.041 934.625 490.522 934.321 491.039C934.321 491.039 934.321 491.039 934.209 491.039C933.833 491.585 933.504 492.161 933.224 492.763C933.015 493.099 932.849 493.46 932.731 493.837C932.563 494.116 932.435 494.418 932.351 494.733C932.328 494.798 932.328 494.869 932.351 494.934C932.161 495.376 932.011 495.833 931.903 496.3C931.764 496.726 931.652 497.16 931.567 497.599C931.48 497.923 931.413 498.252 931.365 498.584C931.092 500.144 930.95 501.724 930.94 503.308V550.149V579.592C921.063 579.592 912.53 576.188 908.544 571.262V558.433L908.387 490.344C908.387 474.403 914.702 463.297 925.184 457.767C925.677 457.479 926.186 457.217 926.707 456.983V456.983L926.998 456.871C927.783 456.493 928.591 456.164 929.417 455.886C929.417 455.886 929.417 455.886 929.417 455.886C929.844 455.711 930.286 455.576 930.738 455.483C931.217 455.293 931.712 455.143 932.216 455.035C932.39 454.948 932.582 454.902 932.776 454.901C932.887 454.883 933.001 454.883 933.112 454.901L934.142 454.677C934.488 454.581 934.84 454.506 935.195 454.453V454.453C935.486 454.453 935.777 454.341 936.068 454.296H936.18C936.519 454.219 936.864 454.166 937.211 454.14C937.588 454.07 937.97 454.025 938.353 454.005C938.733 453.971 939.115 453.971 939.495 454.005C940.7 453.877 941.911 453.817 943.123 453.826H944.31C945.103 453.827 945.896 453.872 946.684 453.96C947.928 454.007 949.169 454.119 950.402 454.296C951.229 454.37 952.051 454.49 952.865 454.655C952.961 454.633 953.061 454.633 953.157 454.655C953.694 454.655 954.276 454.811 954.791 454.946C955.732 455.102 956.65 455.304 957.636 455.55C958.621 455.796 959.517 455.998 960.502 456.289C960.906 456.423 961.354 456.491 961.801 456.67L963.123 457.028C965.788 457.856 968.498 458.841 971.23 459.983C972.193 460.342 973.089 460.767 974.03 461.17C974.97 461.573 976.045 462.066 977.053 462.558L979.696 463.879C980.256 464.193 980.883 464.484 981.443 464.775C982.764 465.514 984.063 466.208 985.429 467.014C989.451 469.331 993.353 471.849 997.12 474.559L999.158 476.037C1002.65 478.605 1006.06 481.321 1009.37 484.187C1011.3 485.866 1013.13 487.59 1014.99 489.314C1016.22 490.456 1017.41 491.553 1018.6 492.83C1019.79 494.106 1020.61 494.89 1021.6 495.92C1021.91 496.196 1022.19 496.495 1022.45 496.815C1024.38 498.808 1026.21 500.913 1028.03 503.04C1028.27 503.331 1028.56 503.622 1028.81 503.935C1032.72 508.555 1036.38 513.376 1039.78 518.377C1040.07 518.724 1040.33 519.091 1040.57 519.474V519.474C1042.05 521.713 1043.44 523.818 1044.8 526.034C1045.65 527.423 1046.44 528.811 1047.22 530.221C1047.82 531.274 1048.41 532.304 1048.94 533.378C1050.38 535.998 1051.68 538.662 1052.86 541.282C1053 541.528 1053.11 541.775 1053.2 541.976C1053.85 543.454 1054.52 544.932 1055.08 546.454C1055.53 547.551 1055.98 548.693 1056.4 549.813C1056.83 550.932 1057.3 552.276 1057.68 553.507C1058.06 554.739 1058.37 555.589 1058.69 556.664C1058.69 556.978 1058.89 557.269 1058.98 557.604C1059.67 560.023 1060.3 562.441 1060.75 564.814C1060.77 564.948 1060.77 565.084 1060.75 565.217C1060.97 566.157 1061.13 567.143 1061.29 568.083C1061.29 568.262 1061.29 568.464 1061.29 568.62C1061.49 569.852 1061.64 571.039 1061.78 572.27C1062.17 574.642 1062.42 577.034 1062.54 579.435V579.435Z" fill="#3A4151"/>
<path d="M751.211 522.676C752.879 523.729 754.272 525.164 755.277 526.861C756.281 528.558 756.868 530.47 756.989 532.438V548.111C756.989 551.694 754.413 553.149 751.3 551.358L622.612 477.134C620.966 476.062 619.595 474.618 618.611 472.918C617.627 471.218 617.056 469.311 616.946 467.35V451.677C616.946 448.072 619.522 446.639 622.635 448.453L751.211 522.676Z" fill="#D5D7E2"/>
<ellipse rx="32.4307" ry="46.474" transform="matrix(0.956871 0.344848 -0.0591941 1.00178 686.605 304.827)" fill="#E61A2D"/>
<rect width="71.6816" height="13.0939" transform="matrix(0.428009 0.975285 -0.604658 0.702752 687.498 293.09)" fill="#FAE511"/>
<rect width="67.4539" height="17.4193" transform="matrix(0.582333 -0.723903 0.402216 0.983936 679.661 300.634)" fill="#FAE511"/>
</g>
<defs>
<clipPath id="clip0_375_2">
<rect width="1119" height="874" fill="white"/>
</clipPath>
</defs>
</svg>
