<svg id="visual" viewBox="0 0 900 600" width="900" height="600" xmlns="http://www.w3.org/2000/svg" xmlns:xlink="http://www.w3.org/1999/xlink" version="1.1"><rect x="0" y="0" width="900" height="600" fill="#002233"></rect><path d="M286 0L278.2 16.7C270.3 33.3 254.7 66.7 272.3 100C290 133.3 341 166.7 335.5 200C330 233.3 268 266.7 255.3 300C242.7 333.3 279.3 366.7 304.3 400C329.3 433.3 342.7 466.7 359.5 500C376.3 533.3 396.7 566.7 406.8 583.3L417 600L0 600L0 583.3C0 566.7 0 533.3 0 500C0 466.7 0 433.3 0 400C0 366.7 0 333.3 0 300C0 266.7 0 233.3 0 200C0 166.7 0 133.3 0 100C0 66.7 0 33.3 0 16.7L0 0Z" fill="#0066FF" stroke-linecap="round" stroke-linejoin="miter"></path></svg>